<svg width="135" height="46" viewBox="0 0 135 46" fill="none" xmlns="http://www.w3.org/2000/svg">
<g clip-path="url(#clip0_2254_4975)">
<path d="M18.7175 42.4713C18.4898 42.6655 18.2486 42.8436 17.9959 43.0042C17.0547 43.6065 16.2465 44.06 15.6158 45.0078C14.9862 44.469 14.7509 43.8916 14.6703 43.076C14.655 42.8925 14.6522 42.7081 14.6619 42.5241C15.1709 42.5063 15.6944 42.4928 16.2293 42.4844H16.3586C16.8772 42.4761 17.4054 42.4717 17.9424 42.4717H18.2185C18.2919 42.4717 18.3645 42.4717 18.4375 42.4717C18.5312 42.4701 18.6246 42.4709 18.7175 42.4713Z" fill="black"/>
<path d="M14.7361 45.2131C15.0154 45.5609 15.4414 46.0072 15.7187 45.9278C15.9162 45.8734 16.1017 45.4592 16.2529 45.25C15.7356 45.242 15.23 45.2297 14.7361 45.2131ZM37.8388 0.482078C37.706 0.252177 37.5384 0.0965275 37.2584 0.0969246C36.7713 0.293472 36.0763 0.93632 35.6446 1.29527L34.1095 2.57223C32.1427 4.2002 30.1879 5.8414 28.2451 7.49584C25.5323 5.10828 22.8023 4.2268 19.2015 4.606C17.6915 3.07849 15.3026 1.9544 13.0709 2.57342C12.5495 2.71835 11.9064 2.91688 12.0405 3.57879C11.9886 3.6316 11.2027 3.96712 11.067 4.03661C10.8273 4.16099 10.5943 4.29777 10.3689 4.44638C10.1575 4.58694 9.73817 4.88315 9.59814 5.09478C9.57021 5.13767 9.44854 5.46127 9.44854 5.46445C9.25664 5.61692 8.95185 5.81268 8.7468 5.94768C8.24732 6.27367 6.8618 7.65109 6.84544 8.23597L6.89371 8.30664C6.77642 8.50518 6.56698 8.75612 6.42934 8.9622C6.06043 9.5083 5.76094 10.0978 5.53771 10.7172C5.43598 11.0031 5.5776 11.1508 5.51018 11.349C5.44276 11.5471 5.27481 11.8044 5.19901 12.0129C4.96842 12.6482 4.6764 13.4081 4.95645 14.0613C4.88464 14.4187 4.74302 15.2843 4.84196 15.6277C5.00153 16.1864 4.95406 16.2146 4.97081 16.8011C4.98724 17.3188 5.1104 17.8276 5.33265 18.296C5.00621 20.2215 5.22589 22.1994 5.96697 24.0074C5.68771 24.2294 5.29595 24.6427 5.02906 24.9075L3.47997 26.4509L1.44776 28.472C1.08871 28.8294 0.72049 29.2026 0.367426 29.5564C-0.155586 30.0805 0.122476 30.4256 0.53179 30.9064C0.796289 31.2165 1.31651 31.7466 1.74138 31.3829C2.09245 31.0831 2.42397 30.7289 2.74911 30.4025C3.41587 29.7381 4.07878 29.0701 4.73783 28.3985L6.51312 26.572C7.33175 29.3952 9.50279 32.0956 11.6954 34.0369C11.9643 34.2751 12.3133 34.5745 12.5958 34.7865C13.3645 35.3678 14.1724 35.8292 14.5215 36.7881C15.0764 38.3117 14.3898 39.6867 14.0491 41.1161C13.9329 41.5869 13.869 42.0689 13.8584 42.5535C14.1217 42.5416 14.3894 42.5311 14.6615 42.5221C14.6518 42.7061 14.6546 42.8905 14.6699 43.0741C14.7497 43.8896 14.9858 44.467 15.6154 45.0058C16.2461 44.058 17.0544 43.6045 17.9955 43.0022C18.2483 42.8416 18.4894 42.6635 18.7171 42.4693C19.1187 42.4725 19.5148 42.4781 19.9052 42.486C20.2144 42.1643 20.4628 41.7897 20.6385 41.3802C20.7466 41.1369 20.8323 40.8844 20.8946 40.6258C21.6103 40.8072 22.3308 40.864 23.0572 40.7655C24.2541 40.6011 25.2279 40.2319 26.4427 40.5924C27.0012 40.7584 27.4508 41.0133 27.9894 41.1944C28.0807 41.2253 28.1194 41.2095 28.1916 41.1709C28.3137 40.9855 28.2459 40.6015 28.2136 40.3832C27.961 38.6651 27.0941 37.2066 25.7361 36.1262C25.091 35.6668 24.3047 35.2269 23.5419 35.0033C21.5357 34.4157 19.92 34.559 19.4707 31.9991C19.2358 30.6602 19.602 28.5228 20.3767 27.3832C20.79 26.7757 21.3565 26.0773 21.4663 25.2788C21.7208 25.0207 21.9777 24.7328 22.1445 24.41C22.7696 25.0918 23.4534 25.6929 24.2708 26.1309C26.0844 27.1017 27.9335 26.2723 28.9328 24.6487C29.6003 24.6089 30.0674 24.3989 30.5286 23.8768C31.3492 22.9464 31.723 21.2065 31.682 19.9951C31.662 19.4181 31.4426 18.6176 31.0006 18.2365C30.8087 18.0713 30.6451 17.9946 30.4229 17.8819C30.3583 17.0818 30.1799 16.2448 29.8508 15.5102C30.0626 15.3172 30.2386 15.0734 30.3918 14.8324C31.3241 14.7923 31.9951 13.937 31.5 13.0635C31.498 13.0599 31.7119 12.722 31.7059 12.6756C31.8064 12.0402 31.5714 11.455 31.0943 11.0305C30.9323 10.8867 30.7523 10.7642 30.5589 10.666C30.2438 10.0077 29.9027 9.4629 29.489 8.85856C31.0991 7.38863 32.6993 5.90784 34.2894 4.4162C35.063 3.70148 35.9682 2.90219 36.7082 2.16683C36.6448 3.82735 36.6939 5.73406 36.6947 7.41682L36.6915 17.193L36.6516 23.5627C36.6536 23.7889 36.5706 24.0077 36.419 24.1761C36.3661 24.2332 36.3256 24.3004 36.2999 24.3737C36.2742 24.4469 36.264 24.5247 36.2697 24.6021C36.2755 24.6795 36.2973 24.7548 36.3336 24.8235C36.3699 24.8922 36.42 24.9527 36.4808 25.0012C36.52 25.0334 36.5514 25.0739 36.5727 25.1197C36.594 25.1656 36.6048 25.2156 36.6041 25.2661L36.6073 26.5065C36.6073 26.8373 36.6272 27.4492 36.555 27.7485C36.5198 27.9003 36.4425 28.0393 36.332 28.1496C36.0723 28.4077 35.6426 28.4251 35.3845 28.1539C35.1918 27.9514 35.1452 27.7128 35.1452 27.442C35.3367 27.5476 35.4212 27.6008 35.6363 27.6544C35.2888 27.199 35.1783 26.8794 35.2581 26.2822C35.2668 26.2186 35.2784 26.1559 35.2932 26.0936C34.6884 26.7686 34.3202 28.0217 35.0937 28.7082C35.2089 28.8117 35.3438 28.891 35.4904 28.9414C35.637 28.9919 35.7923 29.0125 35.947 29.0021C37.1498 28.9274 37.1961 27.639 37.165 26.7487C37.1479 26.2464 37.1463 25.7005 37.1502 25.1871C37.1495 25.101 37.1821 25.018 37.2412 24.9552C37.3427 24.8518 37.4005 24.7136 37.4028 24.5691C37.4051 24.4246 37.3517 24.2847 37.2536 24.1781C37.112 24.0186 37.0356 23.8121 37.0393 23.5992L37.102 1.74276C37.4674 1.41399 38.1564 1.03003 37.8388 0.482078ZM26.9593 19.2783C26.9482 19.7314 26.901 20.1828 26.8181 20.6284L26.1538 20.9901C26.1538 20.9901 25.6316 19.9129 25.561 19.6623C25.4904 19.4118 25.2558 19.0842 25.561 18.6164C25.8662 18.1487 27.2529 17.3832 27.5701 17.164C27.8872 16.9448 28.3679 16.7689 28.3679 16.7689C28.3679 16.7689 28.506 17.4713 28.437 17.8743C28.4378 17.8731 26.9824 18.4914 26.9593 19.2783ZM37.1722 24.5593C37.1722 24.817 36.8794 25.0064 36.6069 24.8174C36.595 24.8093 36.5847 24.7991 36.5766 24.7872C36.4373 24.5887 36.5012 24.3806 36.646 24.2822C36.6967 24.2478 36.7558 24.2279 36.817 24.2246C36.8782 24.2212 36.9392 24.2346 36.9933 24.2632C37.0475 24.2918 37.0928 24.3345 37.1243 24.3869C37.1558 24.4392 37.1724 24.4991 37.1722 24.5601V24.5593Z" fill="black"/>
<path d="M29.6877 43.8674C29.6877 44.6397 24.4292 45.2658 17.9424 45.2658C17.3687 45.2658 16.8056 45.2611 16.2529 45.2515C15.7356 45.2423 15.2303 45.229 14.7369 45.2118C9.80878 45.0459 6.19955 44.5062 6.19955 43.8662C6.19955 43.2646 9.3875 42.7516 13.8592 42.5559C14.1225 42.5439 14.3902 42.5335 14.6623 42.5245C14.6526 42.7084 14.6554 42.8928 14.6707 43.0764C14.7505 43.892 14.9866 44.4693 15.6162 45.0081C16.2469 44.0603 17.0552 43.6069 17.9963 43.0045C18.2491 42.844 18.4902 42.6659 18.7179 42.4717C19.1196 42.4749 19.5156 42.4804 19.906 42.4884C25.4581 42.5991 29.6877 43.1745 29.6877 43.8674Z" fill="black"/>
<path d="M17.7613 5.63836C20.297 4.89585 23.2001 5.1198 25.5375 6.38485C27.4995 7.4719 29.0701 9.1433 30.0288 11.1643C30.4644 11.32 30.8187 11.5693 31.0305 11.9898C31.127 12.1808 31.1713 12.533 30.9427 12.6442C30.7377 12.5818 30.4289 12.4373 30.2398 12.4008C28.4872 12.0617 26.9549 13.1878 25.5905 14.1082C25.2674 14.3265 24.665 14.7268 24.2613 14.6454C23.9537 14.5834 24.0219 14.2519 24.1164 14.0383C24.1601 13.9376 24.2106 13.8399 24.2676 13.746C23.9772 13.8378 23.7845 13.9279 23.6325 14.2023C23.5559 14.34 23.5252 14.5517 23.5882 14.6922C23.8412 15.2573 24.5018 15.2362 24.9873 15.027C25.4832 14.809 25.9384 14.4651 26.3908 14.1697C27.3507 13.5431 28.4015 12.9217 29.5943 12.988C29.9976 13.0107 30.764 13.0909 30.9722 13.5312C31.0596 13.7163 30.9882 14.0335 30.7604 14.078C30.5526 14.1244 30.304 13.9859 30.0994 13.9489C29.2145 13.7806 28.3476 13.9422 27.679 14.5465C28.5024 14.3047 28.9624 14.1002 29.8863 14.3365C28.5858 16.2745 25.3061 18.1138 23.0189 18.5652C22.7522 18.6188 22.4826 18.6574 22.2115 18.6808C23.2388 18.7999 23.5986 18.7999 24.6418 18.6613C24.4097 20.0228 23.8878 21.1128 22.7333 21.9446C22.2825 22.269 21.6633 22.5664 21.108 22.6339C21.491 22.7058 21.7862 22.759 22.1776 22.7638C21.8261 23.8073 21.1312 24.9198 20.0257 25.276C20.2611 25.334 20.4789 25.3892 20.7182 25.4309C20.4178 26.1218 19.9503 27.0561 19.2047 27.3527C19.172 27.3658 19.1392 27.3785 19.1061 27.3924C19.238 27.4375 19.3741 27.4698 19.5122 27.4889C18.7064 29.3285 18.418 30.7607 18.8157 32.7798C18.8157 32.9985 18.8309 33.5552 18.7866 33.7542C18.763 34.4363 18.3876 35.0351 17.6352 34.9993C17.5403 34.9949 17.4459 34.9831 17.3528 34.964C16.0997 34.6817 14.7995 33.0506 14.0711 32.0654C13.9697 31.8586 13.6322 31.3543 13.487 31.0958C12.9987 30.2223 12.7482 29.577 12.4637 28.6376C13.2908 28.6376 13.7336 28.1142 14.1325 27.4678C14.4517 27.3189 14.4916 27.2991 14.7329 27.0283C15.1869 26.3763 15.1881 25.6358 14.928 24.9087C14.4529 23.7803 13.888 23.5535 13.2365 22.6058C12.9971 22.2551 12.8483 21.7453 12.7454 21.3383L12.7677 21.3308C14.1409 20.8543 14.871 20.1979 15.5029 18.9087C15.7468 18.2863 15.8631 17.6217 15.8448 16.9539C15.8105 16.2571 15.6222 15.7258 14.9408 15.4387C14.7752 15.3692 14.5698 15.2882 14.4297 15.1794C14.8722 15.1215 15.0114 15.1 15.4406 15.1874C14.8722 14.8519 14.4305 14.7431 13.7779 14.7208C14.1138 14.0637 14.5622 13.3291 15.1179 12.8312C15.3086 12.6088 15.5368 12.4194 15.7646 12.2376C15.6629 11.719 15.6525 11.339 15.6848 10.8153C15.7032 10.7645 15.702 10.6565 15.7047 10.5981C15.7746 9.94573 15.919 9.53238 16.1915 8.9479L16.3642 8.69894C16.6784 8.21833 17.0692 7.79186 17.5211 7.43628L17.739 7.29373C17.4541 6.70488 17.5885 6.23396 17.7613 5.63836Z" fill="#FEFEFB"/>
<path d="M17.7613 5.63836C20.297 4.89585 23.2001 5.1198 25.5375 6.38485C27.4994 7.4719 29.0701 9.1433 30.0287 11.1643C30.4644 11.32 30.8186 11.5693 31.0305 11.9898C31.127 12.1808 31.1713 12.533 30.9427 12.6442C30.7377 12.5818 30.4285 12.4373 30.2398 12.4008C28.4872 12.0617 26.9549 13.1878 25.5905 14.1082C25.2674 14.3265 24.665 14.7268 24.2612 14.6454C23.9537 14.5834 24.0219 14.2519 24.1164 14.0383C24.1601 13.9376 24.2106 13.8399 24.2676 13.746C23.9772 13.8378 23.7845 13.9279 23.6325 14.2023C23.5559 14.34 23.5252 14.5517 23.5882 14.6922C23.8412 15.2573 24.5018 15.2362 24.9873 15.027C25.4832 14.809 25.9384 14.4651 26.3908 14.1697C27.3506 13.5431 28.4015 12.9217 29.5943 12.988C29.9976 13.0107 30.764 13.0909 30.9722 13.5312C31.0596 13.7163 30.9882 14.0335 30.7604 14.078C30.5526 14.1244 30.304 13.9859 30.0994 13.9489C29.2145 13.7806 28.3476 13.9422 27.679 14.5465C27.3355 14.6708 26.1295 15.6853 25.6619 15.9108C25.1644 16.1515 24.6722 16.4401 24.1336 16.6537C23.8368 16.7729 23.0285 16.9468 22.8374 17.0643C22.7469 17.2497 21.5768 17.3704 21.3286 17.3724C19.7436 17.3836 18.5404 16.6414 17.4417 15.567C16.6199 14.7169 15.9684 13.3946 15.7662 12.2316C15.6644 11.7131 15.6541 11.3331 15.6864 10.8093C15.7047 10.7585 15.7035 10.6505 15.7063 10.5921C15.7761 9.93977 15.9206 9.52643 16.193 8.94195L16.3658 8.69299C16.68 8.21237 17.0708 7.7859 17.5227 7.43032L17.7405 7.28777C17.4541 6.70488 17.5885 6.23396 17.7613 5.63836Z" fill="#FEFEFB"/>
<path d="M17.7613 5.63836C20.2969 4.89585 23.2 5.1198 25.5374 6.38485C27.4994 7.4719 29.0701 9.1433 30.0287 11.1643C28.2542 10.78 27.29 11.7647 25.7409 12.4294C24.8166 12.8451 23.6325 13.1044 22.6495 12.7105C21.4575 12.234 21.1108 11.1512 21.5752 10.0204C21.6035 9.76149 21.7347 9.50419 21.8692 9.2866C21.3781 9.24888 21.2504 9.27667 20.8188 9.48513L20.9468 9.2318C21.2301 8.63184 21.5173 8.27091 22.0902 7.933C20.4569 7.54467 19.0981 7.72732 18.2045 9.33306C18.0342 9.41565 17.7936 9.96836 17.7385 10.155C17.2052 11.9672 18.1123 14.0284 19.813 14.8705C19.9049 14.9151 19.9941 14.9648 20.0803 15.0194C18.5468 14.7975 17.2387 13.727 16.4811 12.4202C16.1029 10.4909 16.5457 8.39956 18.2145 7.2159C18.3876 7.09281 18.562 6.98124 18.7419 6.86847C18.3346 6.98084 18.1151 7.09639 17.7397 7.29055C17.4541 6.70488 17.5885 6.23396 17.7613 5.63836Z" fill="#FC4A10"/>
<path d="M20.9468 9.23097C21.404 8.88394 21.7208 8.76482 22.316 8.83391C23.5551 8.97566 24.3462 10.2697 25.616 10.1772C25.7928 10.1641 25.9839 10.091 26.1538 10.0406C25.9312 10.5619 25.6456 10.7085 25.0846 10.7168C24.8852 12.2931 22.7145 12.2022 21.9677 11.1023C21.7192 10.7366 21.6366 10.4567 21.5752 10.0203C21.6035 9.76145 21.7347 9.50415 21.8692 9.28656C21.3781 9.24884 21.2504 9.27664 20.8188 9.48509L20.9468 9.23097Z" fill="#2A1307"/>
<path d="M22.5294 9.48987C22.7772 9.58715 23.0716 9.74637 23.2687 9.92068C23.1462 10.2951 23.0357 10.8192 23.522 11.0082C23.5869 11.0336 23.6566 11.0447 23.7262 11.0409C23.7959 11.0372 23.8639 11.0186 23.9257 10.9864C24.1535 10.8701 24.2241 10.6958 24.2987 10.4702L24.663 10.6207C24.6291 10.7418 24.5832 10.8617 24.5433 10.9805C24.2126 11.5653 23.5312 11.6507 22.9655 11.3561C22.8239 11.2837 22.6985 11.1837 22.5967 11.062C22.4949 10.9403 22.4188 10.7994 22.373 10.6477C22.2458 10.2328 22.3288 9.86192 22.5294 9.48987Z" fill="#FEFEFB"/>
<path d="M22.5518 7.81742C23.22 7.72809 23.9385 8.11244 24.2329 8.71559L23.9768 8.51705C23.3568 8.08028 22.7596 7.97784 22.028 7.95243C22.2051 7.9016 22.3722 7.8619 22.5518 7.81742Z" fill="#270C04"/>
<path d="M17.7385 7.28976C18.1139 7.09559 18.3334 6.98005 18.7407 6.86768C18.5608 6.98044 18.3864 7.09202 18.2133 7.21511C16.5445 8.39876 16.1017 10.4901 16.4799 12.4194C16.8788 14.0847 17.6979 15.2783 19.164 16.2245C20.0891 16.8201 21.7519 17.2708 22.8374 17.0659C22.7469 17.2513 21.5768 17.372 21.3286 17.374C19.7436 17.3851 18.5404 16.643 17.4417 15.5686C16.6199 14.7184 15.9684 13.3962 15.7662 12.2332C15.6644 11.7146 15.6541 11.3347 15.6864 10.8109C15.7047 10.7601 15.7035 10.6521 15.7063 10.5937C15.7761 9.94136 15.9206 9.52801 16.193 8.94353L16.3658 8.69457C16.68 8.21396 17.0708 7.78749 17.5227 7.4319L17.7385 7.28976Z" fill="#2A1307"/>
<path d="M20.0791 15.0186C19.9929 14.9639 19.9037 14.9142 19.8118 14.8697C18.1123 14.0275 17.2051 11.9663 17.7373 10.1541C17.7924 9.96672 18.0329 9.4148 18.2033 9.33221C17.3336 11.5327 18.6597 14.0307 20.8112 14.8502C21.2448 15.0154 21.5616 15.0682 22.0236 15.1075C21.3585 15.1881 20.7314 15.2076 20.0791 15.0186Z" fill="#2A1307"/>
<path d="M27.679 14.5481C28.5024 14.3062 28.9624 14.1018 29.8863 14.338C28.5858 16.2745 25.3061 18.1137 23.0189 18.5652C22.7522 18.6187 22.4826 18.6573 22.2115 18.6807C23.2388 18.7998 23.5986 18.7998 24.6418 18.6613C24.4097 20.0228 23.8878 21.1127 22.7333 21.9446C22.2825 22.269 21.6633 22.5664 21.108 22.6339C21.491 22.7058 21.7862 22.759 22.1776 22.7637C21.8261 23.8072 21.1312 24.9198 20.0257 25.276C20.2611 25.3339 20.4789 25.3891 20.7183 25.4308C20.4178 26.1217 19.9503 27.056 19.2047 27.3526C19.172 27.3657 19.1392 27.3784 19.1061 27.3923C19.2381 27.4375 19.3741 27.4698 19.5122 27.4888C18.7064 29.3284 18.418 30.7606 18.8157 32.7797C18.8157 32.9985 18.8309 33.5552 18.7866 33.7541C18.7798 33.6509 18.7977 33.3967 18.7794 33.3173C18.7068 33.0021 18.5165 32.8087 18.4339 32.4787C18.1124 31.1705 18.0852 29.8078 18.3541 28.4878C18.4279 28.1356 18.5612 27.8128 18.6334 27.465C18.6378 27.442 18.5372 27.3745 18.5165 27.3582C18.7662 27.1565 18.9884 26.9361 19.0914 26.6232C19.136 26.4866 19.2214 26.1864 19.1919 26.055L19.1664 26.0693C19.0973 25.8636 19.1129 25.7044 19.1097 25.4872C18.8548 25.5269 18.7842 25.5694 18.5859 25.4273C19.0144 25.3259 19.4064 25.1088 19.7189 24.7999C20.06 24.4656 20.3791 23.9117 20.3831 23.4268C20.3628 23.2791 20.6652 22.8312 20.06 22.7566C19.9168 22.7391 19.8729 22.7625 19.7408 22.6875C20.2841 22.5729 20.7745 22.2842 21.1371 21.8656C21.7443 21.154 21.8038 20.2376 21.7356 19.3549C21.6199 20.0573 21.5361 20.4727 21.1116 21.0834C21.0378 20.5854 21.278 19.9112 21.0478 19.3176C20.7406 18.5255 19.7983 18.2336 19.1564 17.7151C18.6346 17.2982 18.1696 16.8155 17.7729 16.2793C17.6049 16.0525 17.3264 15.8469 17.4397 15.5717C18.5384 16.6462 19.7416 17.3883 21.3266 17.3772C21.5748 17.3752 22.7449 17.2545 22.8354 17.069C23.0265 16.9499 23.8328 16.776 24.1316 16.6585C24.6702 16.4448 25.1625 16.1562 25.6599 15.9156C26.1307 15.6868 27.3355 14.6723 27.679 14.5481Z" fill="#E6E0D8"/>
<path d="M15.7658 12.2336C15.9684 13.3962 16.6199 14.7184 17.4413 15.5689C17.328 15.8441 17.6065 16.0498 17.7744 16.2765C18.1711 16.8128 18.6362 17.2954 19.158 17.7123C19.7999 18.2309 20.7422 18.5227 21.0493 19.3148C21.2795 19.9085 21.0394 20.5827 21.1132 21.0806C20.7438 21.5487 20.488 21.7651 19.9343 22.0077C19.9295 21.7592 19.987 21.7012 20.1066 21.4812C19.0897 21.777 18.0202 21.6154 17.0595 21.2227C16.2708 20.9369 15.4993 20.4084 15.5352 19.4757C15.54 19.3506 15.5567 19.0095 15.5025 18.9035C15.7464 18.2812 15.8626 17.6165 15.8444 16.9487C15.81 16.2519 15.6217 15.7206 14.9404 15.4335C14.7748 15.364 14.5693 15.283 14.4293 15.1742C14.8717 15.1163 15.011 15.0948 15.4402 15.1822C14.8717 14.8463 14.4301 14.7379 13.7774 14.7156C14.1133 14.0585 14.5618 13.3239 15.1175 12.826C15.3098 12.6048 15.538 12.4154 15.7658 12.2336Z" fill="#FEFEFB"/>
<path d="M12.7466 21.3343L12.7689 21.3268C14.1421 20.8503 14.8721 20.1939 15.5041 18.9047C15.5583 19.0107 15.5416 19.3518 15.5368 19.4768C15.5009 20.4087 16.2724 20.9372 17.0611 21.2239C18.0218 21.6166 19.0914 21.7798 20.1083 21.4824C19.9886 21.702 19.9295 21.758 19.9347 22.0081C20.4884 21.7655 20.7442 21.5491 21.1136 21.081C21.5365 20.4703 21.6218 20.055 21.7375 19.3522C21.8073 20.2364 21.7479 21.1517 21.1391 21.8632C20.7765 22.2818 20.286 22.5705 19.7428 22.6851C19.1165 22.8162 18.6541 22.8578 18.0106 22.7864C17.8814 22.886 17.8459 22.8848 17.6655 22.8614C17.1241 22.7908 16.5982 22.6309 16.1097 22.3881C15.4817 22.0705 13.8532 20.4425 13.6618 21.7596C13.5389 22.6069 14.4517 23.6841 14.8263 24.4016C14.9256 24.5918 14.9858 24.7086 14.9284 24.9075C14.4533 23.779 13.8884 23.5523 13.2369 22.6045C12.9975 22.2511 12.8495 21.7413 12.7466 21.3343Z" fill="#E6E0D8"/>
<path d="M21.7375 19.3518C21.8073 20.2357 21.7479 21.1509 21.1391 21.8624C20.7765 22.281 20.286 22.5698 19.7428 22.6844C19.1165 22.8154 18.6541 22.8571 18.0106 22.7856C16.953 22.6046 16.2405 22.2544 15.6688 21.3137C16.8896 22.1622 18.5061 22.5097 19.9351 22.0074C20.4888 21.7648 20.7446 21.5484 21.114 21.0802C21.5365 20.4695 21.6226 20.0542 21.7375 19.3518Z" fill="#2A1307"/>
<path d="M14.7341 27.0262C14.8199 27.2526 14.6886 27.4269 14.6396 27.6218C14.5323 28.0483 13.9542 28.4859 13.7755 28.7336C13.5305 29.0739 13.8265 30.2401 13.9689 30.6252C14.3364 31.6338 14.9152 32.5061 15.6489 33.2856C15.8328 33.4813 16.0363 33.7116 16.2242 33.907C16.4699 34.1623 17.2857 34.6574 17.354 34.96C16.1009 34.6777 14.8007 33.0465 14.0723 32.0614C13.9709 31.8546 13.6334 31.3503 13.4882 31.0918C12.9999 30.2183 12.7494 29.573 12.4649 28.6336C13.2919 28.6336 13.7348 28.1102 14.1337 27.4638C14.4537 27.3181 14.4936 27.297 14.7341 27.0262Z" fill="#E6E0D8"/>
<path d="M20.3859 23.4237C20.3819 23.9085 20.0628 24.4624 19.7217 24.7968C19.4092 25.1056 19.0172 25.3227 18.5887 25.4241C17.6504 25.6624 16.9155 25.407 16.2788 24.7162C16.0486 24.6447 15.6868 24.0479 15.5607 23.8355C16.8972 24.4612 17.94 24.655 19.3842 24.1416C19.6583 24.0439 19.9475 23.8085 20.1865 23.7402C20.2511 23.6651 20.3301 23.5174 20.3859 23.4237Z" fill="#E6E0D8"/>
<path d="M20.3859 23.4237C20.3819 23.9085 20.0628 24.4624 19.7217 24.7968C19.4092 25.1056 19.0171 25.3227 18.5887 25.4241C17.6504 25.6624 16.9155 25.407 16.2788 24.7162C16.9012 24.9508 17.4453 25.0676 18.1163 24.9739C18.5263 24.9158 18.9204 24.7767 19.2756 24.5649C19.6307 24.353 19.9397 24.0726 20.1844 23.7402C20.2511 23.6651 20.3301 23.5174 20.3859 23.4237Z" fill="#2A1307"/>
<path d="M19.168 26.0662L19.1935 26.0519C19.223 26.1837 19.138 26.4835 19.093 26.6201C18.99 26.933 18.7678 27.1533 18.5181 27.355C18.0812 27.6056 17.6867 27.6 17.2016 27.4694L17.1617 27.4579C16.9159 27.276 16.7368 27.1466 16.519 26.9342C17.2 27.1188 17.7721 27.031 18.3884 26.7229C18.546 26.6435 18.7371 26.5244 18.8995 26.4847C19.0025 26.3543 19.0925 26.2141 19.168 26.0662Z" fill="#E6E0D8"/>
<path d="M19.168 26.0662L19.1935 26.0519C19.223 26.1837 19.1376 26.4835 19.093 26.6201C18.99 26.933 18.7678 27.1533 18.5181 27.355C18.0812 27.6056 17.6867 27.6 17.2016 27.4694L17.1617 27.4579C17.9129 27.3225 18.4195 27.1248 18.8995 26.4851C19.0026 26.3546 19.0925 26.2142 19.168 26.0662Z" fill="#2A1307"/>
<path d="M27.5585 40.403C27.0191 40.0449 26.4079 39.8079 25.7672 39.7085C24.4687 39.5302 23.6987 39.9166 22.4161 39.963C21.9561 39.9797 21.3869 39.8662 20.94 39.7697C20.8834 39.2932 20.8204 39.1344 20.6253 38.6785C20.135 37.7653 19.655 37.0569 18.862 36.3633C20.4218 38.6071 20.6911 40.7806 18.7171 42.4713C18.4894 42.6655 18.2482 42.8436 17.9954 43.0042C17.0543 43.6065 16.2461 44.06 15.6154 45.0078C14.9858 44.4689 14.7505 43.8916 14.6699 43.076C14.6546 42.8925 14.6518 42.7081 14.6615 42.5241C14.691 41.8332 14.8386 40.9275 15.0301 40.4796C15.0301 40.4729 15.0321 40.4657 15.0329 40.4582C15.0357 40.4411 15.0393 40.4213 15.0437 40.399C15.0437 40.3959 15.0437 40.3927 15.0437 40.3891C15.0497 40.3597 15.0568 40.3268 15.0648 40.2914C15.0648 40.2839 15.068 40.2759 15.07 40.268C15.0979 40.1489 15.1354 40 15.1701 39.8622L15.1749 39.8439L15.1905 39.7812C15.2196 39.6621 15.2455 39.5592 15.2591 39.4897C15.4861 38.3498 15.4554 37.7105 15.2248 36.6071C15.4833 36.8453 15.9257 37.2304 16.1192 37.4957C16.3454 37.6394 16.6829 38.3001 16.7659 38.5614C17.1461 39.7586 16.7591 41.323 16.2269 42.4836C16.1737 42.5996 16.1195 42.711 16.0642 42.8179C16.1667 42.7175 16.2613 42.6093 16.347 42.4943L16.3562 42.4816C17.0743 41.4921 17.3934 39.9698 17.2107 38.7675C16.9865 37.3067 16.2365 36.6801 15.155 35.8165C14.6994 35.4472 14.2361 35.0878 13.7651 34.7381C13.7427 34.7246 13.6095 34.6122 13.5808 34.5888C13.0729 34.227 12.3923 33.6664 11.9228 33.257L12.0169 33.2245C12.3991 33.2614 12.7956 33.2336 13.0625 32.933C13.0834 32.9246 13.1059 32.9208 13.1284 32.9219L13.1312 32.9084C13.343 33.2614 13.574 33.5536 13.9965 33.6557C14.2821 33.7252 14.468 33.6104 14.7397 33.558L14.7568 33.5548C14.841 33.4889 14.8482 33.4873 14.8765 33.3888C14.8741 33.3837 14.8713 33.3788 14.8681 33.3742L14.865 33.3702C14.8624 33.3665 14.8594 33.363 14.8562 33.3599C14.8526 33.3557 14.8486 33.352 14.8442 33.3487H14.8422C14.8381 33.3453 14.8339 33.3422 14.8294 33.3392L14.8255 33.3368H14.8235C14.8144 33.3314 14.805 33.3268 14.7951 33.3229C14.7752 33.3146 14.7545 33.308 14.7333 33.3035L14.7146 33.2991L14.6966 33.2959L14.6699 33.2916C14.6515 33.2892 14.6324 33.2868 14.6128 33.2852C14.5933 33.2836 14.5729 33.2812 14.5522 33.28L14.5123 33.2773H14.4844L14.4277 33.2741H14.4253L14.3711 33.2709L14.306 33.2661C14.2897 33.2661 14.2733 33.2634 14.2574 33.2614L14.2298 33.2582C14.2115 33.2558 14.1935 33.2534 14.1756 33.2503C14.1576 33.2471 14.1508 33.2459 14.1389 33.2431L14.1102 33.2364L14.0822 33.2288L14.0555 33.2201L14.03 33.2102C13.5943 33.0247 13.2923 32.7011 13.3478 32.2012C13.3483 32.1957 13.3493 32.1903 13.3506 32.1849C13.3506 32.181 13.3526 32.177 13.3538 32.173C13.355 32.1691 13.3566 32.1647 13.3582 32.1607C13.3598 32.1561 13.3618 32.1516 13.3641 32.1472C13.3683 32.1382 13.3731 32.1294 13.3785 32.121C13.3817 32.1159 13.3853 32.1107 13.3889 32.1059C13.3917 32.1018 13.3947 32.0978 13.398 32.094L13.406 32.0845C13.4106 32.0788 13.4155 32.0733 13.4208 32.0682L13.434 32.0555C13.4359 32.0533 13.438 32.0513 13.4403 32.0495C13.4515 32.0392 13.4639 32.0289 13.4766 32.019L13.4842 32.013L13.4922 32.0075L13.5002 32.0023C13.5074 31.9971 13.5145 31.9924 13.5225 31.9876L13.5377 31.9781C13.5391 31.977 13.5407 31.9762 13.5425 31.9757C13.548 31.9721 13.554 31.9689 13.56 31.9658C13.5658 31.9624 13.5718 31.9594 13.578 31.9566L13.5871 31.9519L13.5963 31.9479L13.6151 31.9396C13.6274 31.9344 13.6402 31.9296 13.653 31.9253H13.657L13.6713 31.9209C13.6778 31.9185 13.6845 31.9165 13.6913 31.9149L13.6996 31.9126L13.7104 31.9102C13.7139 31.9096 13.7174 31.9088 13.7208 31.9078H13.7296L13.7423 31.9054H13.7487H13.7615L13.7842 31.9034C13.8023 31.9018 13.8204 31.9018 13.8385 31.9034H13.8417H13.8576L13.8732 31.9066C13.8839 31.909 13.8945 31.9122 13.9047 31.9161C13.9149 31.9198 13.9248 31.9243 13.9342 31.9296C13.9595 32.0005 13.9995 32.0653 14.0515 32.1198L14.0731 32.0722C14.1552 32.1834 14.2446 32.3025 14.3403 32.4271L14.4122 32.5205C14.5151 32.6527 14.6244 32.7897 14.7393 32.9286L14.8091 33.0124L14.8566 33.0684C14.9144 33.1367 14.9739 33.2054 15.0345 33.2737C15.1721 33.4289 15.3138 33.583 15.4634 33.7319C15.4989 33.7672 15.5344 33.803 15.5707 33.8379C15.6239 33.8909 15.6785 33.9425 15.7346 33.9928C15.8081 34.0603 15.8827 34.1258 15.9577 34.1913L16.0283 34.2501C16.0753 34.2887 16.1228 34.3263 16.1707 34.3628L16.2425 34.4168L16.3107 34.4665C16.3339 34.4828 16.3566 34.499 16.3793 34.5145L16.4468 34.5598L16.5174 34.6054L16.5868 34.6483C16.6363 34.6777 16.6861 34.7059 16.7356 34.7329L16.7958 34.7643C16.8865 34.8107 16.9798 34.8521 17.0751 34.8882C17.145 34.9146 17.2149 34.937 17.2845 34.9553C17.3077 34.9612 17.3312 34.9672 17.3544 34.9723C17.4006 34.9819 17.4477 34.9898 17.4948 34.9958C17.5419 35.0017 17.5889 35.0057 17.6364 35.0081C18.3904 35.0438 18.7646 34.445 18.7881 33.7629C18.8324 33.5643 18.8185 33.0085 18.8173 32.7885C18.9453 33.2086 19.1364 33.6704 19.31 34.0797C20.3747 36.1893 21.1379 36.1711 23.2164 37.2165C23.3052 37.2613 23.3927 37.3075 23.4789 37.3551C23.5651 37.4028 23.6502 37.4517 23.7342 37.502L23.8591 37.5787C23.8914 37.5985 23.9233 37.6184 23.9552 37.6394C23.972 37.6501 23.9887 37.6605 24.0051 37.6716L24.0769 37.7184C24.1017 37.7343 24.126 37.7506 24.1499 37.7673L24.2173 37.8129C24.3405 37.8971 24.462 37.9838 24.582 38.073L24.7232 38.179L24.7439 38.1949L24.8465 38.2743C24.9522 38.3565 25.0567 38.4399 25.1612 38.5245C25.2514 38.6134 25.3308 38.6885 25.4261 38.7715L25.4365 38.7576C24.9223 37.9063 23.9692 37.2654 23.0899 36.8318C21.9071 36.2477 21.0553 36.0178 20.358 34.8016C21.3051 35.1681 22.1229 35.3075 23.0863 35.5783C25.4664 36.237 26.9465 38.1016 27.5585 40.403Z" fill="#FC4A10"/>
<path d="M20.6253 38.6785L20.6652 38.6027C20.8247 38.6277 21.0837 38.8627 21.2508 38.9449C21.4631 39.0486 22.4245 39.1597 22.6072 39.0478C22.774 39.2669 22.8442 39.4528 22.9802 39.6866C22.9451 39.4881 22.9124 39.2797 22.8582 39.0883C23.676 39.0803 24.3741 38.9406 25.1577 39.2844C25.4409 39.4087 25.5829 39.4456 25.766 39.7085C24.4675 39.5302 23.6979 39.9166 22.4149 39.963C21.9549 39.9797 21.3857 39.8661 20.9388 39.7696C20.8838 39.2947 20.8188 39.1351 20.6253 38.6785Z" fill="#EC3A04"/>
<path d="M25.1608 38.5153C25.1493 38.5747 25.1247 38.6307 25.0886 38.6793L25.0176 38.6773C24.5748 38.3553 24.0235 37.9841 23.5591 37.7117C23.0588 37.4194 22.5817 37.1915 22.0694 36.9318C21.3645 36.5745 20.6676 36.32 20.1035 35.7319C19.766 35.3801 19.2948 34.694 19.2226 34.181C19.2162 34.1357 19.2665 34.1091 19.3096 34.0702C20.3743 36.1798 21.1375 36.1615 23.216 37.207C23.9269 37.5648 24.5489 38.0182 25.1608 38.5153Z" fill="#FE6F2A"/>
<path d="M20.0787 36.4379C21.2225 36.9731 22.4026 37.8054 22.8438 39.0414L22.8594 39.0883C22.9136 39.2797 22.9463 39.4897 22.9814 39.6867C22.8454 39.4528 22.7752 39.267 22.6084 39.0478C21.8409 37.8038 21.2041 37.3464 20.0787 36.4379Z" fill="#2A1005"/>
<path d="M15.2272 36.6066C15.4857 36.8449 15.9281 37.23 16.1216 37.4953C15.9194 37.4353 15.6676 37.0267 15.5065 36.96C15.451 37.0363 15.4494 37.1312 15.4354 37.228L15.4239 37.209C15.4422 37.4401 15.4929 37.9936 15.4825 38.2064C15.4618 38.6265 15.2767 40.2314 15.0305 40.4796C15.0521 40.2985 15.2176 39.7113 15.2619 39.4893C15.4885 38.3493 15.4578 37.7101 15.2272 36.6066Z" fill="#EC3A04"/>
<path d="M13.5832 34.5884C14.1042 34.3604 14.4341 34.279 14.7201 33.7343L14.76 33.7128C14.8199 33.8717 14.6691 34.1186 14.6108 34.2763C14.5362 34.4776 14.2889 34.5995 14.1002 34.669C13.9893 34.7087 13.8668 34.6987 13.7691 34.7377C13.7451 34.7242 13.6119 34.6118 13.5832 34.5884Z" fill="#A51700"/>
<path d="M18.1734 37.3114C18.2532 37.3908 18.4367 37.7819 18.4822 37.8955C18.9577 39.0815 19.1891 40.3212 18.696 41.5322C18.6774 41.5746 18.6537 41.6146 18.6254 41.6513C18.6222 41.6478 18.692 40.9056 18.694 40.8175C18.7168 39.6775 18.4953 38.4069 18.1734 37.3114Z" fill="#280E03"/>
<path d="M15.5779 37.3849L15.6704 37.4024C15.7538 37.5123 15.7502 37.614 15.7993 37.6624L15.9413 37.6569C15.9337 37.5941 15.9218 37.5568 15.9497 37.5004L15.9896 37.5131C16.2325 38.2092 15.6349 39.7327 15.2874 40.3664L15.2659 40.3613C15.3058 40.2445 15.3652 39.9197 15.4127 39.8451C15.6999 39.4 15.7969 39.2598 15.7095 38.7309C15.7027 38.6912 15.8539 38.5876 15.8843 38.4133C15.7247 38.3875 15.8017 38.3339 15.7881 38.1901C15.7477 38.181 15.709 38.1653 15.6736 38.1437C15.5001 37.7772 15.4817 37.778 15.5779 37.3849Z" fill="#EC3A04"/>
<path d="M16.0271 34.6134C16.1723 34.7869 16.9686 36.0794 16.9506 36.2283L16.9127 36.2378C16.6562 36.0468 16.5309 35.9785 16.5269 35.6275C16.5269 35.4389 16.4958 35.4607 16.3746 35.3297C16.203 35.1443 15.9748 34.8842 16.0271 34.6134Z" fill="#EC3A04"/>
<path d="M19.225 41.7316V41.7824C19.1324 41.892 18.9792 42.0917 18.8787 42.1731C18.546 42.4431 17.7166 42.9105 17.3141 42.9672C17.2811 42.9729 17.2478 42.9768 17.2143 42.9788C17.2367 42.939 18.8995 42.2084 19.0056 41.9432C19.0032 41.9412 19.2027 41.7522 19.225 41.7316Z" fill="#EC3A04"/>
<path d="M11.5653 27.0664C10.9178 25.5992 11.6275 25.1605 9.73297 24.3231C8.51699 23.7846 7.37004 22.227 7.28865 20.8916C7.22283 19.8049 7.7985 19.1263 8.46194 18.3171C10.0054 16.5751 12.0756 15.3498 14.4309 15.1755C14.5709 15.2843 14.7764 15.3653 14.9419 15.4348C15.6233 15.7218 15.8116 16.2531 15.846 16.95C15.7386 17.2116 15.7099 17.6278 15.5926 17.9398C15.074 19.3157 13.8772 20.2059 12.5284 20.6891C12.1533 19.9319 11.7608 19.3697 10.9146 19.0834C10.6557 18.9956 9.99707 18.8984 9.76608 19.0568C10.5265 19.2065 11.0981 19.5396 11.5474 20.1876C11.7867 20.5311 12.1023 21.3197 12.1689 21.7282C12.378 22.1583 12.4482 22.5398 12.7466 22.9591C13.1527 23.5297 13.6992 23.9669 14.0886 24.5383C14.5047 25.149 14.8163 26.0555 14.0695 26.5502C14.0579 26.0975 13.9929 25.8946 13.8429 25.4781C13.8792 26.2413 13.8584 27.5913 12.8323 27.8057C12.787 27.8168 12.7398 27.8179 12.6939 27.8092C12.6481 27.8004 12.6047 27.7819 12.5667 27.7549C12.5607 27.6866 12.7458 27.4249 12.7849 27.2633C12.8794 26.8714 12.8415 26.5736 12.8168 26.177C12.7334 26.6796 12.5523 27.2058 12.1214 27.5206C11.9996 27.6103 11.8609 27.6749 11.7136 27.7105C11.5663 27.7461 11.4133 27.752 11.2637 27.7279C10.4961 27.6044 10.0481 26.7082 10.8081 26.1877C10.9916 26.634 11.1001 26.8587 11.5653 27.0664Z" fill="#FC4A10"/>
<path d="M9.76609 19.0568C10.5265 19.2065 11.0982 19.5396 11.5474 20.1876C11.7867 20.5311 12.1023 21.3196 12.1689 21.7282H12.1382C12.0026 21.4634 11.7991 20.4846 11.5466 20.3893C11.5218 20.3961 11.4041 20.464 11.4149 20.4846C11.4999 20.6522 12.068 21.6313 12.0488 21.7552C11.9451 21.625 11.829 21.3554 11.752 21.1993C11.5075 20.701 11.2817 20.3234 10.8724 19.943C10.2129 19.3288 9.78364 19.3014 8.91196 19.3411C9.24747 19.1235 9.37752 19.1183 9.76609 19.0568Z" fill="#FE6F2A"/>
<path d="M17.413 5.73724C17.5271 5.69749 17.6433 5.66448 17.7613 5.63837C17.5885 6.23396 17.4541 6.70488 17.7385 7.28976L17.5207 7.43231C17.0688 7.78789 16.678 8.21436 16.3638 8.69497L16.1911 8.94393C15.9178 9.52961 15.7742 9.94176 15.7043 10.5941C15.7016 10.6533 15.7043 10.7605 15.6844 10.8113C15.6537 11.3351 15.6641 11.7151 15.7642 12.2336C15.5364 12.4155 15.3082 12.6049 15.1175 12.8272C14.5618 13.3252 14.1134 14.0581 13.7775 14.7169L13.708 14.7236C13.5983 14.7441 13.4865 14.7523 13.3749 14.7482C12.5419 14.8749 11.7492 15.1612 10.9988 15.5384L10.7714 15.6639C10.1144 16.0113 9.52234 16.4505 8.96542 16.9388L8.7101 17.1727C8.47672 17.3994 8.23137 17.6301 8.01753 17.8731L7.87232 17.7834C7.04811 17.2672 7.0146 16.8999 6.81512 16.0248C6.94199 15.6111 7.14305 15.2152 7.32856 14.8233C7.37205 14.7006 7.48016 14.5056 7.54359 14.3865C7.87551 13.6853 8.41648 12.907 8.87007 12.2765C8.94795 12.1497 9.03714 12.0301 9.13657 11.9191C9.47327 11.3871 10.3605 10.3996 10.7866 9.94732C10.9202 9.78412 11.0894 9.59592 11.2653 9.47878C11.5821 9.11189 12.8036 8.15973 13.2022 7.8802C13.3406 7.75663 13.4941 7.65084 13.659 7.56532C13.8792 7.34178 15.0952 6.69178 15.4319 6.53653C15.5652 6.45487 15.7055 6.38511 15.8512 6.32807C16.3611 6.10418 16.8824 5.90697 17.413 5.73724Z" fill="#FC4A10"/>
<path d="M17.413 5.73724C17.527 5.69749 17.6433 5.66448 17.7613 5.63837C17.5885 6.23396 17.4541 6.70488 17.7385 7.28976L17.5207 7.43231C17.0688 7.78789 16.678 8.21436 16.3638 8.69497L16.1911 8.94393C15.9868 8.84943 15.7398 8.59253 15.5603 8.4345C15.2264 8.02513 15.1702 7.43469 15.3114 6.94273C15.3513 6.80137 15.4083 6.67907 15.4311 6.53375C15.5644 6.45216 15.7047 6.38241 15.8504 6.32529C16.3606 6.10232 16.8822 5.90604 17.413 5.73724Z" fill="#FC4A10"/>
<path d="M15.4307 6.53372C15.564 6.45213 15.7043 6.38238 15.85 6.32526C15.4837 7.16981 15.451 8.18749 16.3638 8.69494L16.1911 8.9439C15.9868 8.8494 15.7398 8.5925 15.5603 8.43447C15.2264 8.02509 15.1702 7.43466 15.3114 6.94269C15.3521 6.80134 15.4083 6.67904 15.4307 6.53372Z" fill="#A51700"/>
<path d="M17.413 5.73724C17.527 5.69749 17.6433 5.66448 17.7613 5.63837C17.5885 6.23396 17.4541 6.70488 17.7385 7.28976L17.5207 7.43231C17.3129 6.95067 17.2634 6.61038 17.3579 6.08229C17.3799 5.96277 17.4337 5.84881 17.413 5.73724Z" fill="#A51700"/>
<path d="M12.9169 11.7226C12.3983 11.1067 12.2611 10.3098 12.6975 9.58596C12.802 9.41244 13.0518 9.17023 13.256 9.12775L13.2903 9.15356C12.8455 9.79482 12.6393 10.2769 12.9433 11.0726C13.2094 11.7702 13.7735 12.0255 14.4213 12.3011C14.3643 12.3051 14.3072 12.3078 14.2502 12.3098C13.716 12.3293 13.3769 12.1323 12.9991 11.7813C12.9828 11.8044 12.9668 11.8274 12.9508 11.8508C12.222 12.9138 12.7191 14.0537 13.7112 14.7236C13.6014 14.7441 13.4897 14.7523 13.3781 14.7482C12.9165 14.4655 12.6289 14.2483 12.4055 13.7353C12.1131 13.067 12.2327 12.1038 12.9169 11.7226Z" fill="#A51700"/>
<path d="M8.86928 12.2749C8.94715 12.1481 9.03634 12.0285 9.13577 11.9175C9.26423 12.504 9.3887 12.7847 9.9165 13.1592C10.0505 13.2541 10.3474 13.3291 10.3713 13.368C9.97515 13.4327 9.73299 13.3442 9.40905 13.1143C9.34402 13.0678 9.28059 13.0186 9.21955 12.9674C8.6351 13.8512 8.72207 14.8296 9.61131 15.486C9.77647 15.6079 10.2317 15.7087 10.2799 15.7568C10.2249 15.829 10.0641 15.8822 9.97514 15.8874C9.16729 15.9358 8.57885 15.1008 8.521 14.3786C8.46395 13.6376 8.64827 13.3259 9.07713 12.7974C9.01968 12.6521 8.93231 12.4079 8.86928 12.2749Z" fill="#A51700"/>
<path d="M15.5587 8.43445C15.7383 8.59327 15.9852 8.84938 16.1895 8.94388C15.9178 9.52955 15.7742 9.94171 15.7044 10.5941C14.8706 9.86468 15.1482 9.27146 15.5587 8.43445Z" fill="#FC4A10"/>
<path d="M13.6578 7.5625C13.2632 8.76362 13.7715 9.38225 14.695 10.0751C14.3563 9.98857 14.0567 9.92107 13.7826 9.68799C13.2445 9.23216 13.0645 8.55477 13.2014 7.87737C13.3397 7.75383 13.493 7.64805 13.6578 7.5625Z" fill="#A51700"/>
<path d="M14.6838 10.3023C14.7676 10.2435 14.8227 10.1887 14.9232 10.1832L14.938 10.228C14.8686 10.3614 14.7784 10.4865 14.715 10.6191C14.4429 11.1929 14.5303 12.0196 14.9081 12.5286C14.9651 12.6057 15.0888 12.7506 15.1203 12.8272C14.3555 12.8038 13.8297 11.0801 14.5925 10.3825C14.6216 10.3551 14.6523 10.3285 14.6838 10.3023Z" fill="#A51700"/>
<path d="M10.7858 9.94449C10.9194 9.7813 11.0886 9.59309 11.2645 9.47595C10.9254 10.4361 11.399 11.0749 12.3157 11.3938L12.1705 11.5077C11.2673 11.4303 10.8157 10.8002 10.7858 9.94449Z" fill="#A51700"/>
<path d="M15.5587 8.43445C15.1466 9.27146 14.869 9.86388 15.7027 10.5941C15.7 10.6532 15.7027 10.7605 15.6828 10.8113L15.6633 10.7747C14.6144 10.3292 14.5817 8.85454 15.5587 8.43445Z" fill="#A51700"/>
<path d="M10.7714 15.6639C10.68 15.6116 10.5989 15.5433 10.532 15.4622C10.0174 14.8475 10.1933 13.9533 10.7922 13.4554C10.7124 13.7663 10.5432 14.0295 10.5404 14.3988C10.5368 14.8852 10.6785 15.1929 11.0004 15.5384L10.7714 15.6639Z" fill="#A51700"/>
<path d="M8.81661 15.3831C8.7097 15.9616 8.65185 16.4135 8.96462 16.9388L8.7093 17.1727C8.21182 16.5973 8.29998 15.9072 8.81661 15.3831Z" fill="#A51700"/>
<path d="M7.54279 14.3849C7.67484 14.9332 8.28801 15.1675 8.75477 15.3474C8.03668 15.4165 7.85715 15.3005 7.32776 14.8232C7.37124 14.7006 7.47936 14.5068 7.54279 14.3849Z" fill="#A51700"/>
<path d="M12.3153 11.3958L12.6863 11.4513C12.5212 11.4692 12.3325 11.4855 12.1701 11.5097L12.3153 11.3958Z" fill="#A51700"/>
<path d="M11.0283 10.959L11.0782 11.0039C11.063 11.1512 10.7934 11.4212 10.7499 11.5597C10.4539 12.5187 10.836 13.5141 11.8414 13.823C12.054 13.8885 12.2363 13.9024 12.455 13.9231C12.3456 13.9735 12.2343 14.0148 12.1218 14.0585C10.6338 14.3463 9.43536 11.879 11.0283 10.959Z" fill="#A51700"/>
<path d="M8.60676 24.3401C8.77704 24.47 8.95517 24.5893 9.14014 24.6974C9.58616 24.9607 10.268 25.1299 10.4323 25.6782C10.477 25.8267 10.1475 25.9685 10.0517 26.1416C9.68948 26.7975 9.91608 27.5214 10.4598 27.9951C10.5719 28.0634 10.7032 28.1392 10.8105 28.2115C11.468 28.5394 11.8793 28.41 12.4649 28.6347C12.7494 29.5742 12.9999 30.219 13.4882 31.093C13.6322 31.3515 13.9709 31.8557 14.0723 32.0626L14.0507 32.1103C13.9987 32.0558 13.9589 31.991 13.9338 31.9201C13.7371 31.8105 13.3661 32.0197 13.3466 32.1956C13.2911 32.6955 13.5931 33.0191 14.0288 33.2046C14.2929 33.3169 14.7947 33.2165 14.8769 33.3876C14.8506 33.4861 14.8434 33.4877 14.7572 33.554L14.7401 33.5568C14.4684 33.6092 14.2825 33.7239 13.9969 33.6544C13.5744 33.5524 13.3438 33.2602 13.132 32.9072L13.1288 32.9207C13.1063 32.9196 13.0838 32.9234 13.0629 32.9318C12.796 33.2324 12.3995 33.2602 12.0173 33.2232L11.9232 33.2558C11.4951 32.9048 10.7602 32.1647 10.382 31.7469C10.2412 31.5949 10.1427 31.4805 10.0114 31.3169C9.63806 30.8798 9.29066 30.4213 8.97099 29.9439C8.90636 29.8728 8.79625 29.687 8.74 29.5972C8.41526 29.1112 8.03707 28.4739 7.80488 27.9407L7.65967 27.6476C7.35408 26.9671 7.25075 26.522 7.17535 25.7949C7.35727 25.5611 7.66126 25.3018 7.88387 25.0802C7.98401 24.9671 8.08095 24.8678 8.18707 24.7598L8.60676 24.3401Z" fill="#A51700"/>
<path d="M11.7133 30.246C11.916 30.1988 12.7602 29.9332 12.7506 29.687C12.5806 29.6334 12.3481 29.8152 12.1554 29.8728C11.3798 30.1039 10.4882 29.5357 10.4658 28.7142C10.4603 28.5077 10.6589 28.3409 10.8113 28.2123C11.4688 28.5403 11.8801 28.4108 12.4657 28.6356C12.7502 29.575 13.0007 30.2198 13.489 31.0938C13.633 31.3523 13.9717 31.8565 14.0731 32.0634L14.0515 32.1111C13.9995 32.0566 13.9597 31.9918 13.9346 31.9209C13.738 31.8113 13.3669 32.0205 13.3474 32.1964C13.2919 32.6963 13.5939 33.0199 14.0296 33.2054C14.2937 33.3177 14.7956 33.2173 14.8777 33.3884C14.8514 33.4869 14.8442 33.4885 14.7581 33.5548L14.7409 33.5576C14.4692 33.61 14.2833 33.7247 13.9977 33.6552C13.5752 33.5532 13.3446 33.261 13.1328 32.908L13.1296 32.9215C13.1071 32.9204 13.0846 32.9242 13.0638 32.9326L13.1304 32.8206L13.1663 32.8182C13.4647 33.6064 14.2386 33.8716 14.924 33.3316C14.1261 33.3578 13.7671 33.3622 13.3055 32.605C13.3055 32.4196 13.3019 32.2286 13.2995 32.0428L13.4212 31.9884C13.5146 31.9455 13.6721 31.8863 13.708 31.7898C13.0342 31.8692 12.5571 31.8137 12.0792 31.2816C11.7688 30.9365 11.7149 30.6864 11.7133 30.246Z" fill="#EC3A04"/>
<path d="M8.60676 24.3401C8.77704 24.47 8.95517 24.5893 9.14014 24.6974C9.58616 24.9607 10.268 25.1299 10.4323 25.6782C10.477 25.8267 10.1475 25.9685 10.0517 26.1416C9.68949 26.7975 9.91609 27.5214 10.4598 27.9951C10.2536 28.1043 10.4646 28.0483 10.3234 28.1285C9.2698 28.0403 9.042 27.2383 9.05836 26.3377C9.42379 26.3711 9.55185 26.2944 9.86742 26.1281C8.67059 26.1586 8.55091 25.7493 8.19665 24.7852L8.18707 24.7598L8.60676 24.3401Z" fill="#EC3A04"/>
<path d="M8.97299 29.9431L8.99134 29.9352C9.6121 29.6862 9.67154 29.7366 10.1702 29.2042C10.4854 29.7259 10.7463 30.0539 11.3762 30.2103C11.4217 30.2218 11.468 30.2326 11.5139 30.2421C11.2789 30.9056 10.7411 31.3507 10.0134 31.3162C9.64006 30.879 9.29266 30.4205 8.97299 29.9431Z" fill="#EC3A04"/>
<path d="M10.3841 31.7462C10.8289 31.6394 11.2011 31.4527 11.4839 31.0807C11.8298 31.7323 12.4298 32.1698 13.193 32.0734C13.11 32.4637 13.0642 32.6261 12.7286 32.8786C12.4386 33.0966 11.9862 33.0299 11.8593 33.1232C11.916 33.1839 11.9415 33.1891 12.0189 33.224L11.9248 33.2566C11.4971 32.9056 10.7623 32.1655 10.3841 31.7462Z" fill="#EC3A04"/>
<path d="M8.91595 27.2867C9.16569 27.8772 9.48205 28.3271 10.1774 28.4053C9.90692 29.1526 9.47726 29.367 8.74121 29.5965C8.41647 29.1105 8.03828 28.4732 7.80609 27.9399C8.32352 27.8121 8.57246 27.6846 8.91595 27.2867Z" fill="#EC3A04"/>
<path d="M7.88387 25.0811L7.89066 25.0989C8.14438 25.7795 8.15156 26.0519 8.92511 26.3267C8.82977 27.124 8.36899 27.4047 7.65967 27.6477C7.35408 26.9671 7.25075 26.522 7.17535 25.795C7.35727 25.5611 7.65967 25.3018 7.88387 25.0811Z" fill="#EC3A04"/>
<path d="M25.0819 19.8775C25.2921 20.2396 25.7804 21.1136 25.6344 21.5055C25.5809 21.6496 25.0759 22.0776 25.1956 22.5291C25.2614 22.5136 25.5303 22.2392 25.5917 22.1769C25.9823 21.7798 26.3748 21.4503 26.915 21.27C26.8492 21.897 26.8835 22.5962 27.4013 23.0453C27.4182 23.0663 27.4303 23.0907 27.4368 23.1168C27.2262 23.6468 26.6932 24.1976 26.1845 24.4414L26.1578 24.4541C26.2272 24.5136 26.3844 24.5196 26.4698 24.4938C27.1153 24.3091 27.4915 23.8231 27.8401 23.2883C27.9997 23.2994 28.1645 23.297 28.3249 23.2974C28.3532 23.5551 28.3983 23.8188 28.4378 24.0753C28.0787 24.9564 26.6489 25.8621 25.7066 25.8224C24.4547 25.7707 23.313 24.6046 22.4991 23.7751C22.786 23.2426 22.8215 23.2045 22.9958 22.5966C23.4033 22.2853 23.7806 21.9368 24.1228 21.5555C24.5241 21.0179 24.8752 20.5227 25.0819 19.8775Z" fill="#EC3A04"/>
<path d="M25.0819 19.8775C25.2921 20.2396 25.7804 21.1136 25.6344 21.5055C25.5809 21.6496 25.0759 22.0776 25.1956 22.5291C25.2614 22.5136 25.5303 22.2392 25.5917 22.1769C25.9823 21.7798 26.3748 21.4503 26.915 21.27C26.8492 21.897 26.8835 22.5962 27.4013 23.0453C27.2593 23.1489 27.1384 23.2871 27.0048 23.3903C26.0984 24.0912 25.083 24.0538 24.1547 23.4455C23.3568 22.9238 24.2134 21.9661 24.1228 21.5567C24.5241 21.0179 24.8752 20.5227 25.0819 19.8775Z" fill="#FC4A10"/>
<path d="M28.0324 18.7554C28.95 17.9529 30.847 18.1082 31.0022 19.5054C31.2048 20.074 30.9579 21.3319 30.7859 21.9029C30.5366 22.7332 30.1029 23.5865 29.1958 23.8088C29.2121 23.1942 29.2177 22.5982 28.5207 22.3651C28.3755 22.4084 28.1964 22.4679 28.0496 22.4842C27.3467 22.1606 27.2916 21.3971 28.0775 21.1656C28.4234 21.0639 28.8818 21.129 29.2305 21.2077C28.8606 20.9766 28.4916 20.7661 28.0336 20.8173C27.9782 20.8237 27.7476 20.8531 27.7117 20.834C27.2729 20.6037 27.7536 20.0601 28.0005 19.9208C28.064 19.8834 28.129 19.8489 28.1948 19.8171C28.7402 19.561 29.2576 19.6551 29.7966 19.8457C29.6429 19.6562 29.4415 19.5105 29.2129 19.4236C28.5499 19.2064 28.1904 19.3601 27.6171 19.6186C27.5868 19.5789 27.588 19.5745 27.5948 19.5126C27.6383 19.1191 27.754 18.9996 28.0324 18.7554Z" fill="#FC4A10"/>
<path d="M28.0324 18.7554C28.95 17.9529 30.847 18.1082 31.0022 19.5054C30.8964 19.4288 30.8083 18.9301 30.6431 18.8344L30.5669 18.9027C30.63 19.0246 30.8861 19.3518 30.8757 19.4709C30.8286 19.4141 30.8099 19.3407 30.7728 19.2771C30.6795 19.1312 30.5654 18.9996 30.4341 18.8864C29.4355 18.0018 28.411 18.9194 28.0324 18.7554Z" fill="#FE6F2A"/>
<path d="M28.0025 19.9212C28.0659 19.8839 28.131 19.8493 28.1968 19.8176C28.7421 19.5614 29.2596 19.6556 29.7985 19.8461L29.7949 19.9287C29.6613 20.0304 29.2049 19.9005 29.0198 19.889C28.7537 19.8716 28.1764 20.0788 28.0025 19.9212Z" fill="#FE6F2A"/>
<path d="M0.840565 30.3251C0.740032 30.227 0.711707 30.206 0.688568 30.09C0.737638 29.934 1.49722 29.2212 1.66159 29.06L3.43089 27.3272L5.96457 24.8619C6.38426 24.4505 6.79637 24.0248 7.22124 23.6183C7.44185 23.4074 7.58747 23.3153 7.82883 23.5635L8.12125 23.9454C6.58772 25.4739 5.06509 27.0122 3.55337 28.5605C3.21427 28.9064 1.5806 30.6137 1.26105 30.8055C1.07913 30.6388 0.990966 30.5185 0.840565 30.3251Z" fill="#7F4621"/>
<path d="M0.840565 30.3251C0.740032 30.227 0.711707 30.206 0.688568 30.09C0.737638 29.934 1.49722 29.2212 1.66159 29.06L3.43089 27.3272L5.96457 24.8619C6.38426 24.4505 6.79637 24.0248 7.22124 23.6183C7.44186 23.4074 7.58747 23.3153 7.82883 23.5635C7.30542 24.1146 6.73932 24.6459 6.19317 25.1783C4.68597 26.6514 3.18275 28.1265 1.61212 29.5321C1.34363 29.7728 1.09788 30.094 0.840565 30.3251Z" fill="#A66738"/>
<path d="M8.27206 7.42831L8.18987 7.42314L8.1799 7.37907C8.60198 6.81921 9.79961 5.75666 10.4702 5.6022C11.5174 5.36079 12.9672 5.88015 13.8568 6.39633L13.9338 6.44954C13.9251 6.56588 13.1862 6.98399 13.0422 7.08484C12.7829 7.2802 12.3484 7.61016 12.08 7.7805C11.7652 7.6721 11.391 7.53631 11.069 7.47238C9.93365 7.16942 9.3867 7.20238 8.27206 7.42831Z" fill="#FC4A10"/>
<path d="M8.27206 7.42831L8.18987 7.42314L8.1799 7.37907C8.60198 6.81921 9.79961 5.75666 10.4702 5.6022C11.5174 5.36079 12.9672 5.88015 13.8568 6.39633C13.5612 6.51109 13.2768 6.28754 12.9628 6.20614C12.0983 5.98219 11.1604 5.63873 10.2767 5.97465C9.65599 6.2387 9.07233 6.76044 8.59121 7.20555C8.49746 7.29569 8.37259 7.34214 8.27206 7.42831Z" fill="#FE6F2A"/>
<path d="M11.069 7.47038C11.1464 7.41995 11.5956 7.32823 11.6946 7.32743C12.0608 7.32466 12.749 6.99072 13.047 6.98993L13.0422 7.08284C12.7829 7.2782 12.3484 7.60816 12.0799 7.7785C11.7652 7.6701 11.391 7.53431 11.069 7.47038Z" fill="#EC3A04"/>
<path d="M6.49237 10.3003C6.91086 9.45334 7.54398 8.33401 8.41248 7.85396C9.11461 7.46603 10.5564 7.72611 11.3088 7.97308L11.7077 8.11245C11.4185 8.38484 11.1021 8.67271 10.8237 8.95225L9.93364 9.83373C9.49679 9.77838 9.05738 9.74524 8.61713 9.73446C7.86234 9.78727 7.42031 9.89885 6.72814 10.1879C6.69344 10.2105 6.53905 10.2784 6.49237 10.3003Z" fill="#FC4A10"/>
<path d="M6.49237 10.3003C6.91086 9.45334 7.54398 8.33401 8.41248 7.85396C9.11461 7.46603 10.5564 7.72611 11.3088 7.97308C11.1732 8.08188 11.0275 8.04892 10.852 8.02748C9.96635 7.91789 9.03562 7.70387 8.27923 8.31734C7.69678 8.78945 7.39079 9.23853 6.9707 9.8512C6.90966 9.94014 6.76245 10.1085 6.72854 10.1883C6.69344 10.2105 6.53905 10.2784 6.49237 10.3003Z" fill="#FE6F2A"/>
<path d="M8.61713 9.73446C8.67457 9.70031 8.74559 9.70587 8.81939 9.70905C9.22511 9.72573 10.4207 8.87521 10.8229 8.95185L9.93363 9.83373C9.49678 9.77837 9.05737 9.74524 8.61713 9.73446Z" fill="#EC3A04"/>
<path d="M10.465 5.19202C10.9617 4.77113 12.1705 4.02425 12.814 3.95238C13.8995 3.83088 15.0174 4.41179 15.8491 5.02724C15.98 5.14119 16.1551 5.30518 16.2916 5.40246C15.6393 5.6542 15.0293 5.97106 14.4453 6.19659C13.2883 5.6546 12.2846 5.15072 10.9509 5.15708L10.465 5.19202Z" fill="#FC4A10"/>
<path d="M10.465 5.19202C10.9617 4.77113 12.1705 4.02425 12.814 3.95238C13.8995 3.83088 15.0174 4.41179 15.8491 5.02724L15.8627 5.13047C15.8312 5.15549 15.7969 5.19083 15.751 5.1678C14.3619 4.47571 12.7661 3.93094 11.3323 4.84657C11.1995 4.93115 11.0471 5.01969 10.9509 5.15747L10.465 5.19202Z" fill="#FE6F2A"/>
<path d="M28.6041 7.87782C29.0789 7.45177 29.6442 6.99673 30.1365 6.57981L33.687 3.60182C34.5559 2.87201 35.4232 2.1295 36.3037 1.41042C36.6113 1.15908 37.0342 0.806084 37.3533 0.583331C37.4586 0.574595 37.4199 0.57261 37.5265 0.635744C37.5049 0.781466 37.4722 0.799731 37.3497 0.913689C36.9213 1.31433 36.4721 1.69273 36.0332 2.08463L32.5648 5.1873L30.1999 7.34813C29.9027 7.61655 29.3845 8.1101 29.0793 8.33563L29.0537 8.35429C28.97 8.33762 28.9931 8.33722 28.9233 8.25423C28.8219 8.12956 28.7079 8.00091 28.6041 7.87782Z" fill="#A66738"/>
<path d="M37.5257 0.635315C37.5041 0.781038 37.4714 0.799303 37.3489 0.913261C36.9205 1.3139 36.4713 1.6923 36.0324 2.08421L32.564 5.18687L30.1999 7.3481C29.9027 7.61651 29.3845 8.11007 29.0793 8.3356L29.0537 8.35426C28.97 8.33758 28.9931 8.33719 28.9233 8.2542C29.1124 7.91233 31.1689 6.24227 31.6233 5.84878L35.2014 2.72904L37.0788 1.05819C37.2292 0.924378 37.3908 0.748081 37.5257 0.635315Z" fill="#7F4621"/>
<path d="M8.13282 10.2046C8.58202 10.1776 9.08509 10.1784 9.52911 10.2479C9.11142 10.7537 8.54891 11.505 8.10329 11.9795C8.00755 12.0811 7.35249 12.1383 7.13586 12.2058C6.60048 12.3766 6.27694 12.5382 5.79103 12.7947C5.76789 12.8074 5.76071 12.8026 5.72959 12.8038C5.69369 12.6053 5.89515 12.0954 5.96337 11.8941C6.37787 10.67 6.90168 10.3607 8.13282 10.2046Z" fill="#FC4A10"/>
<path d="M5.79103 12.795C5.76789 12.8077 5.76071 12.803 5.72959 12.8042C5.69369 12.6056 5.89515 12.0958 5.96337 11.8945C6.37787 10.67 6.90168 10.3606 8.13282 10.2046L8.22816 10.2407C8.1767 10.3952 7.60382 10.4984 7.44065 10.5917C6.54263 11.1083 6.33 12.0096 5.79103 12.795Z" fill="#FE6F2A"/>
<path d="M12.8858 3.32268C13.5955 2.92562 14.8007 2.9951 15.5795 3.20952C16.5138 3.46211 17.3704 3.942 18.072 4.606L18.2891 4.8081C17.7429 4.94747 17.2917 5.07215 16.7508 5.23614C15.5539 4.21767 14.7692 3.72451 13.2536 3.37231C13.1308 3.35855 13.0081 3.342 12.8858 3.32268Z" fill="#FC4A10"/>
<path d="M12.8858 3.32268C13.5955 2.92562 14.8007 2.9951 15.5795 3.20952C16.5138 3.46211 17.3704 3.942 18.072 4.60599C18.0597 4.66317 18.0641 4.73584 18.0505 4.81207L18.0198 4.81962C17.9731 4.7402 17.2746 4.32606 17.1393 4.24069C16.2054 3.64986 15.1598 3.37708 14.0587 3.33856C13.7978 3.32943 13.5097 3.31553 13.2536 3.37192C13.1308 3.35842 13.0081 3.342 12.8858 3.32268Z" fill="#FE6F2A"/>
<path d="M6.81432 16.0248C7.01379 16.8983 7.0473 17.2672 7.87152 17.7834L8.01673 17.8731C7.93646 17.9777 7.85028 18.0777 7.75862 18.1725C7.26353 18.7681 6.93839 19.3109 6.71419 20.0514C6.42575 19.916 6.21072 19.5388 6.04197 19.2783C6.03399 18.537 6.32522 17.4427 6.5574 16.7462C6.61724 16.5414 6.73972 16.2313 6.81432 16.0248Z" fill="#FC4A10"/>
<path d="M6.81432 16.0248C7.01379 16.8983 7.0473 17.2672 7.87151 17.7834L8.01673 17.8731C7.93646 17.9777 7.85028 18.0777 7.75861 18.1725C7.45701 18.0705 7.28946 17.8886 7.04451 17.6805C6.81671 18.1272 6.8207 18.3679 6.89132 18.8717C6.90927 19 6.93959 19.1568 6.93121 19.2855L6.89491 19.2831C6.80228 19.1587 6.73295 19.0187 6.69025 18.8698C6.54623 18.3754 6.70301 17.9895 6.9348 17.565C6.74411 17.2871 6.65315 17.0734 6.5578 16.747C6.61724 16.5414 6.73972 16.2313 6.81432 16.0248Z" fill="#A51700"/>
<path d="M6.39544 12.9972C6.88295 12.7236 7.22963 12.6287 7.78176 12.5505C7.5424 12.9632 7.30596 13.3777 7.07245 13.7941C6.80555 14.2944 6.70223 14.2519 6.2235 14.5175C5.97536 14.6641 5.82456 14.8292 5.62509 14.9563L5.58838 14.9853L5.55647 14.9587C5.51976 14.695 5.5828 14.1967 5.64743 13.9454C5.77429 13.4518 5.97655 13.2489 6.39544 12.9972Z" fill="#FC4A10"/>
<path d="M6.39544 12.9971C6.43533 13.3644 6.16724 13.4339 6.01006 13.8206C5.8844 14.1308 5.76112 14.6874 5.62548 14.9563L5.58878 14.9852L5.55686 14.9586C5.52016 14.695 5.58319 14.1967 5.64782 13.9453C5.77429 13.4518 5.97655 13.2489 6.39544 12.9971Z" fill="#FE6F2A"/>
<path d="M7.07243 13.7941C6.80554 14.2944 6.70221 14.2519 6.22348 14.5175C6.2496 14.4162 6.28651 14.318 6.33359 14.2245C6.49875 14.1161 6.90567 13.8238 7.07243 13.7941Z" fill="#EC3A04"/>
<path d="M6.04196 19.2783C6.21071 19.5388 6.42574 19.916 6.71418 20.0514L6.66551 20.4608C6.66351 20.8261 6.65713 21.1207 6.72495 21.4824C6.65354 21.5448 6.18837 21.9696 6.13771 21.976C5.99848 21.3673 5.97055 20.8245 5.97813 20.2007C5.96816 19.8831 6.00765 19.5932 6.04196 19.2783Z" fill="#EC3A04"/>
<path d="M6.04195 19.2783C6.21071 19.5388 6.42574 19.916 6.71417 20.0514L6.6655 20.4608C6.39901 20.3345 6.20393 20.0903 6.01842 19.8684C6.00685 19.9795 5.99368 20.0903 5.97852 20.2007C5.96815 19.8831 6.00765 19.5932 6.04195 19.2783Z" fill="#A51700"/>
<path d="M29.3162 15.966C29.5301 16.1423 29.7746 17.4876 29.8057 17.8167C29.6589 17.8108 29.493 17.7937 29.3445 17.7822C29.2261 17.7839 29.1079 17.7933 28.9907 17.8104C29.0023 17.3339 28.9253 16.8999 28.8 16.4393C28.9621 16.2711 29.1345 16.113 29.3162 15.966Z" fill="#FC4A10"/>
<path d="M6.1377 21.976C6.18836 21.9696 6.65353 21.5448 6.72494 21.4824L6.77401 21.6837C6.88712 22.0648 7.03314 22.4355 7.21045 22.7915C7.00101 23.0024 6.73611 23.1886 6.55778 23.378C6.42613 23.0254 6.3244 22.7312 6.22227 22.3679C6.19155 22.24 6.16482 22.1042 6.1377 21.976Z" fill="#EC3A04"/>
<path d="M6.1377 21.976C6.18836 21.9696 6.65353 21.5448 6.72494 21.4824L6.77401 21.6837C6.64036 21.8684 6.30206 22.2313 6.22227 22.3667C6.19155 22.24 6.16482 22.1042 6.1377 21.976Z" fill="#A51700"/>
<path d="M6.4796 14.8646L6.49556 14.8789C6.50593 14.9583 6.44369 15.0488 6.40579 15.1258C6.08345 15.7818 5.88717 16.4739 5.6506 17.1628C5.55166 16.8872 5.54568 16.3202 5.58796 16.0379C5.66855 15.4959 6.06031 15.1651 6.4796 14.8646Z" fill="#FC4A10"/>
<path d="M37.2608 0.079413C37.54 0.079413 37.7076 0.235063 37.84 0.464566C38.1592 1.01252 37.4686 1.39648 37.106 1.72366L37.0433 23.5801C37.0395 23.7929 37.116 23.9995 37.2576 24.159C37.3557 24.2656 37.4091 24.4055 37.4068 24.55C37.4045 24.6945 37.3467 24.8327 37.2452 24.9361C37.1861 24.9989 37.1535 25.0819 37.1542 25.168C37.1502 25.6814 37.1518 26.2273 37.169 26.7296C37.2001 27.6199 37.1538 28.9083 35.951 28.983C35.9251 28.983 35.8988 28.9858 35.8712 28.9858C35.5849 28.9858 35.3087 28.8801 35.0961 28.6891C34.321 28.0026 34.6892 26.7515 35.2956 26.0745C35.2808 26.1368 35.2692 26.1995 35.2605 26.2631C35.1807 26.8587 35.2912 27.1799 35.6387 27.6353C35.4236 27.5805 35.3391 27.5285 35.1476 27.4229C35.1476 27.6937 35.1934 27.9323 35.3869 28.1348C35.4464 28.1974 35.5181 28.247 35.5976 28.2809C35.6772 28.3147 35.7628 28.3319 35.8493 28.3314C36.0313 28.3309 36.2058 28.2587 36.3344 28.1305C36.4449 28.0202 36.5222 27.8812 36.5574 27.7294C36.6296 27.4301 36.6105 26.8162 36.6097 26.4874L36.6065 25.247C36.6072 25.1965 36.5964 25.1465 36.5751 25.1006C36.5538 25.0548 36.5224 25.0143 36.4832 24.9821C36.4224 24.9336 36.3723 24.8731 36.336 24.8044C36.2997 24.7357 36.2779 24.6604 36.2721 24.583C36.2663 24.5056 36.2766 24.4278 36.3023 24.3546C36.3279 24.2813 36.3685 24.2141 36.4214 24.157C36.573 23.9886 36.656 23.7698 36.654 23.5436L36.6939 17.1739L36.6963 7.39931C36.6963 5.71655 36.6464 3.80984 36.7098 2.14931C35.9698 2.88468 35.0646 3.68238 34.291 4.39869C32.699 5.89006 31.0979 7.37085 29.4878 8.84105C29.9015 9.44539 30.2426 9.99016 30.5577 10.6485C30.7514 10.7463 30.9316 10.8684 31.0939 11.0118C31.5726 11.4363 31.806 12.0223 31.7055 12.6568C31.7115 12.7033 31.4976 13.0412 31.4996 13.0448C31.9935 13.9183 31.3237 14.7748 30.3922 14.8201C30.239 15.0611 30.063 15.3049 29.8512 15.4978C30.1803 16.2324 30.3587 17.0694 30.4233 17.8695C30.6455 17.9823 30.8091 18.0589 31.001 18.2241C31.4438 18.6053 31.6624 19.4058 31.6824 19.9827C31.7222 21.1941 31.3496 22.9341 30.529 23.8644C30.0686 24.3866 29.6015 24.595 28.9332 24.6363C28.2275 25.783 27.0981 26.5335 25.8562 26.5335C25.3014 26.5289 24.7565 26.3862 24.2712 26.1185C23.4538 25.6818 22.77 25.0794 22.1448 24.3977C21.9761 24.7205 21.7192 25.0084 21.4666 25.2664C21.3569 26.063 20.7884 26.7614 20.3771 27.3689C19.6024 28.5085 19.2362 30.6459 19.4711 31.9848C19.9203 34.5447 21.5361 34.4013 23.5423 34.989C24.3059 35.2125 25.0922 35.6525 25.7365 36.1119C27.0929 37.1927 27.9614 38.6507 28.214 40.3688C28.2463 40.5872 28.3141 40.9712 28.192 41.1566C28.1563 41.1801 28.115 41.1938 28.0723 41.1963C28.0438 41.1954 28.0157 41.1899 27.9889 41.18C27.4504 40.999 27.0016 40.7433 26.4423 40.5781C26.0963 40.4753 25.7369 40.4238 25.3759 40.4252C24.6067 40.4252 23.8842 40.6372 23.0568 40.7512C22.8206 40.7837 22.5824 40.7999 22.3439 40.7996C21.8547 40.7973 21.3676 40.7341 20.8942 40.6114C20.8319 40.8701 20.7462 41.1226 20.638 41.3659C20.4629 41.7747 20.2152 42.1489 19.9068 42.4705C25.4593 42.5817 29.6888 43.157 29.6888 43.8499C29.6888 44.6222 24.4304 45.2483 17.9436 45.2483C17.3699 45.2483 16.8067 45.2436 16.2541 45.2341C16.1029 45.4433 15.9174 45.8575 15.7199 45.9118C15.6982 45.9178 15.6758 45.9207 15.6533 45.9206C15.378 45.9206 14.9962 45.5164 14.7357 45.1955C9.80757 45.0296 6.19835 44.49 6.19835 43.8499C6.19835 43.2483 9.38629 42.7353 13.858 42.5396C13.8685 42.0549 13.9325 41.5729 14.0487 41.1022C14.3894 39.6728 15.076 38.2957 14.5211 36.7742C14.1716 35.8153 13.3641 35.3539 12.595 34.7762C12.3125 34.5641 11.9635 34.2643 11.6946 34.0265C9.50039 32.0837 7.33094 29.3832 6.51232 26.5617L4.73702 28.3882C4.07877 29.056 3.41599 29.722 2.7487 30.3862C2.42356 30.7126 2.09204 31.0668 1.74097 31.3666C1.65429 31.4441 1.54193 31.487 1.42541 31.4873C1.08232 31.4873 0.732845 31.1236 0.531379 30.8873C0.122065 30.4065 -0.155997 30.0614 0.367015 29.5373C0.720079 29.1835 1.0879 28.8103 1.44735 28.4529L3.47956 26.4318L5.02865 24.8884C5.29554 24.6228 5.6877 24.2103 5.96656 23.9883C5.22548 22.1803 5.0058 20.2024 5.33225 18.2769C5.10999 17.8085 4.98683 17.2997 4.9704 16.782C4.95365 16.1955 5.00272 16.1673 4.84155 15.6086C4.74261 15.2652 4.88423 14.3996 4.95604 14.0422C4.67678 13.389 4.96801 12.6287 5.1986 11.9937C5.2744 11.7853 5.44195 11.5264 5.50977 11.3299C5.57759 11.1333 5.43557 10.984 5.5373 10.6981C5.76053 10.0787 6.06002 9.4892 6.42894 8.9431C6.56657 8.73702 6.77602 8.48647 6.8933 8.28754L6.84503 8.21925C6.86099 7.63437 8.24691 6.25735 8.74639 5.92937C8.95145 5.79437 9.25624 5.59862 9.44813 5.44615C9.44813 5.44297 9.56781 5.11936 9.59773 5.07648C9.73776 4.86286 10.1562 4.56863 10.3685 4.42807C10.5939 4.27946 10.8269 4.14268 11.0666 4.0183C11.2031 3.94881 11.9882 3.61329 12.0401 3.56048C11.906 2.89858 12.5491 2.70004 13.0705 2.55432C13.4918 2.43871 13.9269 2.38087 14.3639 2.38239C16.1859 2.38239 17.9807 3.35361 19.2011 4.58809C19.7137 4.53264 20.2289 4.50415 20.7446 4.50272C23.6094 4.50272 25.9332 5.44376 28.2479 7.48071C30.1907 5.82495 32.1455 4.18374 34.1123 2.5571L35.6458 1.28014C36.0759 0.918809 36.7709 0.277946 37.258 0.079413M26.1534 20.9714L26.8177 20.6097C26.9006 20.1641 26.9478 19.7127 26.9589 19.2596C26.982 18.4727 28.4374 17.8544 28.4374 17.8544C28.5064 17.4514 28.3683 16.749 28.3683 16.749C28.3683 16.749 27.8868 16.9245 27.5705 17.1441C27.2541 17.3637 25.867 18.1288 25.5614 18.5965C25.2558 19.0643 25.4912 19.3907 25.5614 19.6424C25.6316 19.8942 26.1542 20.9702 26.1542 20.9702M36.8375 24.8745C36.8902 24.8746 36.9422 24.8623 36.9893 24.8387C37.0364 24.8151 37.0773 24.7808 37.1086 24.7386C37.14 24.6964 37.1609 24.6474 37.1698 24.5957C37.1786 24.544 37.1752 24.4909 37.1596 24.4407C37.1441 24.3905 37.1169 24.3447 37.0803 24.3069C37.0438 24.2691 36.9988 24.2404 36.949 24.2231C36.8992 24.2058 36.846 24.2003 36.7937 24.2072C36.7415 24.2141 36.6915 24.2331 36.648 24.2627C36.5032 24.3611 36.4393 24.57 36.5786 24.7677C36.5867 24.7796 36.597 24.7898 36.6089 24.7979C36.6753 24.8463 36.7552 24.8731 36.8375 24.8745ZM37.2608 0H37.244L37.2296 0.00595598C36.8175 0.171929 36.2802 0.632128 35.8485 1.0014C35.7575 1.08081 35.6718 1.15308 35.5948 1.21661L34.0596 2.49397C32.118 4.10089 30.1628 5.74275 28.2475 7.37469C27.0849 6.36059 25.9336 5.63396 24.7308 5.1543C23.4973 4.66234 22.1931 4.42331 20.7446 4.42331C20.2394 4.42408 19.7346 4.45059 19.2322 4.50272C18.5951 3.86624 17.8548 3.34112 17.0424 2.9494C16.1452 2.51978 15.244 2.30298 14.3639 2.30298C13.9191 2.30195 13.4762 2.36113 13.0474 2.47888C12.595 2.60475 11.8454 2.81321 11.9507 3.52276C11.8442 3.57994 11.5426 3.71494 11.3523 3.80071C11.2051 3.86662 11.0778 3.9234 11.0287 3.94842C10.7864 4.07404 10.5508 4.21228 10.323 4.36255C10.0888 4.5182 9.67473 4.81243 9.52951 5.03399C9.47299 5.15297 9.42266 5.27477 9.37871 5.39889C9.21515 5.52675 8.97977 5.682 8.78668 5.80787C8.75636 5.82733 8.72764 5.84758 8.70091 5.86386C8.24013 6.16642 6.7812 7.57322 6.76365 8.21806V8.24347L6.77841 8.26451L6.79756 8.2931C6.73333 8.39555 6.64676 8.51109 6.56258 8.62386C6.49277 8.71757 6.42056 8.81445 6.36311 8.9018C5.99049 9.45316 5.68804 10.0484 5.4627 10.6739C5.41636 10.8076 5.4074 10.9513 5.43677 11.0896C5.44953 11.171 5.45951 11.2358 5.43477 11.3068C5.39178 11.4172 5.34154 11.5246 5.28437 11.6284C5.2241 11.7387 5.17081 11.8526 5.1248 11.9695L5.10485 12.0247C4.88224 12.6362 4.60577 13.3954 4.87426 14.0533C4.83437 14.2519 4.65205 15.2374 4.76615 15.6332C4.88583 16.0498 4.88583 16.1586 4.88583 16.4492C4.88583 16.5378 4.88583 16.6477 4.89022 16.7871C4.90618 17.3074 5.02834 17.819 5.24927 18.2908C4.92917 20.2035 5.14393 22.1671 5.87002 23.9665C5.6526 24.1475 5.37772 24.4255 5.15392 24.6518L4.972 24.8352L3.42331 26.3774L1.3911 28.3985C1.16889 28.6193 0.940694 28.8488 0.720478 29.0707C0.582444 29.2097 0.445208 29.3487 0.310366 29.4829C-0.272488 30.0674 0.0710004 30.472 0.469942 30.9401C0.82899 31.3626 1.14296 31.5683 1.42501 31.5683C1.56158 31.5682 1.69331 31.5178 1.79483 31.4269C2.0705 31.1915 2.3342 30.923 2.58952 30.663C2.66253 30.5887 2.73513 30.5149 2.80734 30.4422C3.48235 29.7696 4.15178 29.0949 4.79647 28.4378L6.47721 26.7094C6.87017 27.999 7.55914 29.33 8.52577 30.6661C9.38629 31.8573 10.4646 33.0374 11.6439 34.0809C11.8964 34.3044 12.2583 34.6161 12.5495 34.8353C12.664 34.9211 12.7805 35.0057 12.893 35.0871C13.5441 35.558 14.1592 36.0027 14.4489 36.7968C14.8729 37.961 14.5622 39.0204 14.233 40.1389C14.1429 40.4466 14.0495 40.7647 13.9737 41.0816C13.8624 41.5337 13.7985 41.9961 13.783 42.4614C11.5861 42.5602 9.70505 42.7333 8.33947 42.9632C7.6473 43.0796 7.10913 43.2074 6.74011 43.3436C6.32282 43.4973 6.11976 43.6613 6.11976 43.8491C6.11976 44.0476 6.34715 44.22 6.81471 44.3812C7.23041 44.5245 7.83401 44.6591 8.60995 44.7782C10.1395 45.0165 12.3014 45.1912 14.7006 45.273C15.094 45.755 15.4151 45.9992 15.6557 45.9992C15.6854 45.9992 15.7151 45.9954 15.7438 45.9877C15.9166 45.94 16.0554 45.7097 16.1902 45.4862C16.2277 45.4235 16.264 45.3635 16.298 45.3135C16.8345 45.3222 17.3891 45.327 17.946 45.327C21.0865 45.327 24.039 45.1812 26.2607 44.9168C27.3435 44.7878 28.1944 44.6389 28.79 44.4697C29.4594 44.2815 29.771 44.0842 29.771 43.8491C29.771 43.6355 29.5157 43.4548 28.968 43.2813C28.4844 43.128 27.7863 42.9871 26.8935 42.8628C25.1381 42.6178 22.7257 42.4518 20.0855 42.3939C20.3478 42.0964 20.5606 41.7592 20.7158 41.3948C20.8143 41.1722 20.8952 40.9423 20.9576 40.7071C21.4128 40.8186 21.8796 40.876 22.3483 40.8783C22.5904 40.8784 22.8322 40.862 23.072 40.829C23.362 40.7893 23.6397 40.7373 23.9098 40.6869C24.4124 40.5928 24.8876 40.5038 25.3815 40.5038C25.7348 40.5023 26.0865 40.5528 26.4251 40.6535C26.7128 40.744 26.9947 40.8518 27.2693 40.9763C27.4923 41.0724 27.7225 41.1717 27.969 41.2543C28.0039 41.2673 28.0407 41.2743 28.0779 41.2749C28.1336 41.2724 28.1877 41.2554 28.2347 41.2257L28.2523 41.2162L28.2634 41.1995C28.3947 41.0009 28.34 40.638 28.3033 40.3986L28.2969 40.3565C28.0452 38.6432 27.1799 37.1538 25.7904 36.0491H25.7884C25.0432 35.5183 24.2549 35.1152 23.5699 34.9147C23.2136 34.8103 22.8733 34.7301 22.5442 34.6519C21.0182 34.2905 19.9156 34.0297 19.5545 31.9733C19.3092 30.5756 19.7185 28.4886 20.4482 27.4154C20.5076 27.3276 20.5698 27.2391 20.6353 27.1458C21.0142 26.6057 21.4431 25.9943 21.5468 25.3054C21.7607 25.0874 21.9948 24.8289 22.168 24.5347C22.8617 25.2784 23.5244 25.8053 24.2401 26.1904C24.737 26.4646 25.2949 26.6105 25.863 26.6149C27.0746 26.6149 28.2395 25.9053 28.9863 24.7149C29.6741 24.6645 30.1432 24.4318 30.5948 23.9208C31.421 22.9841 31.8104 21.2315 31.7681 19.9839C31.7474 19.3855 31.5168 18.562 31.0592 18.1681C30.8753 18.0093 30.7177 17.9299 30.5178 17.8294L30.5051 17.8227C30.4329 16.9789 30.2422 16.1852 29.9529 15.5197C30.1381 15.331 30.3011 15.122 30.4389 14.8967C30.9395 14.8598 31.3827 14.5941 31.6034 14.1971C31.8028 13.8397 31.7968 13.4331 31.5922 13.0456L31.6038 13.0261C31.7486 12.7839 31.7845 12.7085 31.7865 12.6628C31.887 12.0152 31.6604 11.4081 31.1482 10.9526C30.9881 10.8105 30.8106 10.6891 30.62 10.5913C30.2912 9.90876 29.9338 9.35208 29.5939 8.85296C31.1693 7.4144 32.7675 5.93533 34.3441 4.45666C34.5791 4.23907 34.8228 4.01989 35.0777 3.78482C35.6008 3.30835 36.1401 2.81718 36.6213 2.34665C36.5849 3.464 36.5957 4.6814 36.6057 5.86068C36.6105 6.39632 36.6145 6.90218 36.6149 7.39931L36.6125 17.1739L36.5726 23.5432C36.575 23.7496 36.4995 23.9493 36.3611 24.103C36.3008 24.1681 36.2546 24.2448 36.2253 24.3283C36.196 24.4119 36.1843 24.5006 36.1909 24.5888C36.1976 24.6771 36.2224 24.7631 36.2638 24.8414C36.3052 24.9197 36.3624 24.9887 36.4318 25.0441C36.4617 25.0687 36.4856 25.0997 36.5018 25.1349C36.518 25.17 36.5259 25.2084 36.5251 25.247L36.5283 26.4878C36.5283 26.5375 36.5283 26.5938 36.5283 26.6546C36.5315 26.9778 36.5363 27.4662 36.4772 27.7108C36.4454 27.8485 36.3753 27.9745 36.275 28.0745C36.1612 28.1875 36.0072 28.2513 35.8465 28.252C35.7708 28.2525 35.6959 28.2375 35.6263 28.2079C35.5567 28.1784 35.4939 28.1348 35.442 28.08C35.3143 27.9458 35.2481 27.7858 35.2301 27.5603C35.3512 27.6287 35.4813 27.6799 35.6167 27.7124L35.8385 27.7687L35.7001 27.5873C35.3494 27.1275 35.2644 26.8202 35.3375 26.2734C35.3462 26.2123 35.3574 26.1511 35.3714 26.0927L35.4436 25.787L35.2341 26.0217C34.8995 26.4018 34.6792 26.868 34.5982 27.3669C34.5156 27.9308 34.6736 28.4215 35.0426 28.7483C35.2697 28.9525 35.5648 29.0657 35.8708 29.066C35.8988 29.066 35.9267 29.066 35.9546 29.0632C36.5175 29.0282 36.9017 28.734 37.096 28.1896C37.2588 27.733 37.2624 27.1684 37.2468 26.7276C37.232 26.2968 37.2272 25.7874 37.232 25.1696C37.2311 25.1036 37.2557 25.0398 37.3006 24.9913C37.4162 24.8733 37.482 24.7158 37.4845 24.551C37.487 24.3863 37.4261 24.2269 37.3142 24.1054C37.186 23.9606 37.117 23.7731 37.1211 23.5801L37.1838 1.7594C37.2388 1.71095 37.301 1.66092 37.3665 1.60851C37.7195 1.32461 38.2043 0.93628 37.907 0.42486C37.8021 0.242607 37.6198 0 37.2608 0ZM26.1889 20.8614C26.0692 20.6132 25.6946 19.8255 25.6376 19.6222C25.6236 19.5721 25.6041 19.5209 25.5833 19.4669C25.498 19.2426 25.401 18.9881 25.6276 18.641C25.8542 18.294 26.7275 17.7599 27.2501 17.4399C27.4125 17.3406 27.5405 17.262 27.6151 17.2104C27.8397 17.0551 28.1549 16.9201 28.3069 16.8594C28.3392 17.0524 28.4038 17.5002 28.3652 17.8008C28.1186 17.9116 26.9014 18.4981 26.8791 19.2585C26.8671 19.6943 26.8228 20.1287 26.7466 20.558L26.1881 20.8614H26.1889ZM36.8367 24.7963C36.7706 24.7949 36.7067 24.7731 36.6536 24.734C36.6496 24.7313 36.6462 24.7277 36.6436 24.7237C36.6187 24.6914 36.6007 24.6545 36.5905 24.6151C36.5803 24.5758 36.5781 24.5348 36.5841 24.4946C36.5904 24.4613 36.6031 24.4296 36.6217 24.4012C36.6402 24.3729 36.6642 24.3485 36.6923 24.3294C36.7309 24.3032 36.776 24.2881 36.8226 24.2855C36.8692 24.283 36.9157 24.2931 36.957 24.3149C36.9982 24.3367 37.0328 24.3692 37.0568 24.4091C37.0809 24.4489 37.0936 24.4945 37.0936 24.541C37.0934 24.6087 37.0662 24.6736 37.0181 24.7214C36.9699 24.7693 36.9047 24.7962 36.8367 24.7963Z" fill="#E6E0D8"/>
<path d="M7.21046 26.0943C7.21046 26.0943 7.1227 25.5694 7.08719 25.3589C7.05169 25.1485 6.65075 23.708 6.44569 23.0695C6.24064 22.431 6.9727 22.3671 6.9727 22.3671C6.9727 22.3671 7.80569 23.7897 8.65822 24.377" fill="#EC3A04"/>
<path d="M8.37378 25.2573C8.37378 25.2573 7.97882 24.4592 8.07696 24.1253C8.07696 24.1253 7.609 24.4326 7.96925 25.3165" fill="#A51700"/>
<path d="M6.55502 26.6975C6.45823 26.3546 6.39004 26.0044 6.35116 25.6504C6.29092 25.0826 6.16126 24.5728 5.90155 23.8259L6.60409 23.5876C6.60409 23.5876 6.96832 24.8678 7.02936 25.2418C7.0904 25.6159 7.21965 26.0197 7.23721 26.3294C7.25476 26.6391 6.55502 26.6975 6.55502 26.6975Z" fill="black"/>
</g>
<path d="M44 29.9936V16.5764H49.2935C50.3111 16.5764 51.1781 16.7707 51.8944 17.1595C52.6107 17.5438 53.1566 18.0788 53.5322 18.7645C53.9122 19.4459 54.1022 20.232 54.1022 21.123C54.1022 22.014 53.91 22.8002 53.5257 23.4815C53.1413 24.1629 52.5845 24.6935 51.8551 25.0735C51.1301 25.4535 50.2522 25.6435 49.2214 25.6435H45.8475V23.3701H48.7628C49.3088 23.3701 49.7586 23.2762 50.1124 23.0884C50.4706 22.8963 50.737 22.632 50.9117 22.2957C51.0908 21.955 51.1803 21.5642 51.1803 21.123C51.1803 20.6775 51.0908 20.2888 50.9117 19.9569C50.737 19.6206 50.4706 19.3607 50.1124 19.1773C49.7543 18.9895 49.3 18.8956 48.7497 18.8956H46.8367V29.9936H44Z" fill="#F1F3F4"/>
<path d="M58.6832 24.176V29.9936H55.8924V16.5764H58.6046V21.7061H58.7225C58.9497 21.1121 59.3165 20.647 59.8232 20.3107C60.3298 19.97 60.9653 19.7997 61.7296 19.7997C62.4284 19.7997 63.0377 19.9525 63.5574 20.2582C64.0816 20.5596 64.4877 20.9942 64.776 21.562C65.0686 22.1254 65.2128 22.8002 65.2084 23.5863V29.9936H62.4175V24.0842C62.4219 23.464 62.2646 22.9814 61.9458 22.6364C61.6313 22.2914 61.1902 22.1188 60.6224 22.1188C60.2425 22.1188 59.9062 22.1996 59.6135 22.3612C59.3253 22.5228 59.0982 22.7587 58.9322 23.0688C58.7706 23.3745 58.6876 23.7436 58.6832 24.176Z" fill="#F1F3F4"/>
<path d="M67.4047 29.9936V19.9307H70.1956V29.9936H67.4047ZM68.8067 18.6335C68.3918 18.6335 68.0358 18.4959 67.7388 18.2208C67.4462 17.9413 67.2999 17.6071 67.2999 17.2184C67.2999 16.8341 67.4462 16.5043 67.7388 16.2292C68.0358 15.9496 68.3918 15.8099 68.8067 15.8099C69.2216 15.8099 69.5754 15.9496 69.868 16.2292C70.165 16.5043 70.3135 16.8341 70.3135 17.2184C70.3135 17.6071 70.165 17.9413 69.868 18.2208C69.5754 18.4959 69.2216 18.6335 68.8067 18.6335Z" fill="#F1F3F4"/>
<path d="M80.8039 22.8002L78.2489 22.9574C78.2052 22.739 78.1113 22.5425 77.9672 22.3678C77.823 22.1887 77.633 22.0468 77.3972 21.9419C77.1657 21.8328 76.8884 21.7782 76.5652 21.7782C76.1328 21.7782 75.7681 21.8699 75.4711 22.0533C75.1741 22.2324 75.0256 22.4726 75.0256 22.774C75.0256 23.0142 75.1217 23.2173 75.3139 23.3832C75.506 23.5492 75.8358 23.6824 76.3031 23.7829L78.1244 24.1498C79.1027 24.3507 79.8321 24.6739 80.3125 25.1194C80.793 25.5648 81.0332 26.1501 81.0332 26.8751C81.0332 27.5346 80.8388 28.1133 80.4501 28.6112C80.0658 29.1091 79.5373 29.4978 78.8647 29.7774C78.1965 30.0525 77.4256 30.1901 76.5521 30.1901C75.22 30.1901 74.1586 29.9128 73.3681 29.3581C72.5819 28.799 72.1212 28.0391 71.9858 27.0782L74.7308 26.9341C74.8138 27.3403 75.0147 27.6504 75.3335 27.8644C75.6523 28.074 76.0607 28.1788 76.5586 28.1788C77.0478 28.1788 77.4409 28.0849 77.7379 27.8971C78.0392 27.705 78.1921 27.4582 78.1965 27.1568C78.1921 26.9035 78.0851 26.696 77.8754 26.5344C77.6658 26.3685 77.3426 26.2418 76.9058 26.1545L75.1632 25.8072C74.1805 25.6107 73.4489 25.27 72.9685 24.7852C72.4924 24.3004 72.2544 23.6824 72.2544 22.9312C72.2544 22.2848 72.4291 21.7279 72.7785 21.2606C73.1323 20.7933 73.628 20.433 74.2656 20.1796C74.9077 19.9263 75.6589 19.7997 76.5193 19.7997C77.7903 19.7997 78.7904 20.0683 79.5198 20.6055C80.2536 21.1427 80.6816 21.8742 80.8039 22.8002Z" fill="#F1F3F4"/>
<path d="M85.5815 24.176V29.9936H82.7906V16.5764H85.5029V21.7061H85.6208C85.8479 21.1121 86.2148 20.647 86.7214 20.3107C87.228 19.97 87.8635 19.7997 88.6279 19.7997C89.3267 19.7997 89.9359 19.9525 90.4557 20.2582C90.9798 20.5596 91.386 20.9942 91.6742 21.562C91.9669 22.1254 92.111 22.8002 92.1066 23.5863V29.9936H89.3157V24.0842C89.3201 23.464 89.1629 22.9814 88.844 22.6364C88.5296 22.2914 88.0885 22.1188 87.5207 22.1188C87.1407 22.1188 86.8044 22.1996 86.5118 22.3612C86.2235 22.5228 85.9964 22.7587 85.8304 23.0688C85.6688 23.3745 85.5858 23.7436 85.5815 24.176Z" fill="#F1F3F4"/>
<path d="M94.3554 29.9936V16.5764H97.1921V27.6547H102.944V29.9936H94.3554Z" fill="#F1F3F4"/>
<path d="M107.64 30.1836C106.998 30.1836 106.426 30.0722 105.923 29.8494C105.421 29.6223 105.024 29.2882 104.731 28.8471C104.443 28.4016 104.299 27.8469 104.299 27.183C104.299 26.624 104.401 26.1545 104.607 25.7745C104.812 25.3945 105.091 25.0888 105.445 24.8573C105.799 24.6258 106.201 24.4511 106.651 24.3332C107.105 24.2153 107.581 24.1323 108.079 24.0842C108.664 24.0231 109.136 23.9663 109.494 23.9139C109.852 23.8571 110.112 23.7741 110.274 23.665C110.435 23.5558 110.516 23.3942 110.516 23.1802V23.1408C110.516 22.7259 110.385 22.4049 110.123 22.1778C109.865 21.9507 109.498 21.8371 109.022 21.8371C108.52 21.8371 108.12 21.9485 107.823 22.1712C107.526 22.3896 107.33 22.6648 107.234 22.9967L104.652 22.7871C104.784 22.1756 105.041 21.6471 105.426 21.2016C105.81 20.7518 106.306 20.4067 106.913 20.1665C107.524 19.9219 108.232 19.7997 109.035 19.7997C109.594 19.7997 110.129 19.8652 110.64 19.9962C111.156 20.1272 111.612 20.3303 112.01 20.6055C112.411 20.8806 112.728 21.2344 112.96 21.6668C113.191 22.0948 113.307 22.608 113.307 23.2064V29.9936H110.66V28.5981H110.581C110.42 28.9126 110.204 29.1899 109.933 29.4301C109.662 29.666 109.337 29.8516 108.957 29.987C108.577 30.118 108.138 30.1836 107.64 30.1836ZM108.439 28.2575C108.85 28.2575 109.212 28.1767 109.527 28.0151C109.841 27.8491 110.088 27.6263 110.267 27.3468C110.446 27.0673 110.536 26.7506 110.536 26.3969V25.329C110.448 25.3858 110.328 25.4382 110.175 25.4862C110.027 25.5299 109.859 25.5714 109.671 25.6107C109.483 25.6456 109.295 25.6784 109.107 25.709C108.92 25.7352 108.749 25.7592 108.596 25.781C108.269 25.8291 107.983 25.9055 107.738 26.0103C107.494 26.1152 107.304 26.2571 107.168 26.4362C107.033 26.6109 106.965 26.8293 106.965 27.0913C106.965 27.4713 107.103 27.7617 107.378 27.9626C107.657 28.1592 108.011 28.2575 108.439 28.2575Z" fill="#F1F3F4"/>
<path d="M118.001 27.0979L118.007 23.7501H118.414L121.637 19.9307H124.84L120.51 24.9883H119.848L118.001 27.0979ZM115.472 29.9936V16.5764H118.263V29.9936H115.472ZM121.761 29.9936L118.8 25.6107L120.661 23.6387L125.03 29.9936H121.761Z" fill="#F1F3F4"/>
<path d="M130.381 30.1901C129.346 30.1901 128.455 29.9805 127.708 29.5612C126.966 29.1375 126.394 28.5392 125.992 27.7661C125.59 26.9887 125.389 26.0693 125.389 25.008C125.389 23.9729 125.59 23.0644 125.992 22.2826C126.394 21.5008 126.959 20.8915 127.689 20.4548C128.422 20.018 129.283 19.7997 130.27 19.7997C130.934 19.7997 131.552 19.9067 132.124 20.1207C132.7 20.3303 133.203 20.647 133.631 21.0706C134.063 21.4943 134.399 22.0271 134.64 22.6691C134.88 23.3068 135 24.0537 135 24.9097V25.6762H126.503V23.9467H132.373C132.373 23.5448 132.286 23.1889 132.111 22.8788C131.936 22.5687 131.694 22.3263 131.384 22.1516C131.078 21.9725 130.722 21.883 130.316 21.883C129.892 21.883 129.517 21.9813 129.189 22.1778C128.866 22.37 128.612 22.6298 128.429 22.9574C128.246 23.2806 128.152 23.6409 128.147 24.0384V25.6828C128.147 26.1807 128.239 26.6109 128.422 26.9734C128.61 27.3359 128.874 27.6154 129.215 27.812C129.556 28.0085 129.96 28.1068 130.427 28.1068C130.737 28.1068 131.021 28.0631 131.279 27.9757C131.537 27.8884 131.757 27.7574 131.941 27.5827C132.124 27.408 132.264 27.194 132.36 26.9406L134.941 27.111C134.81 27.7312 134.541 28.2727 134.135 28.7357C133.733 29.1943 133.214 29.5524 132.576 29.8101C131.943 30.0634 131.211 30.1901 130.381 30.1901Z" fill="#F1F3F4"/>
<defs>
<clipPath id="clip0_2254_4975">
<rect width="38" height="46" fill="white"/>
</clipPath>
</defs>
</svg>
